<mxfile host="Electron" modified="2024-04-19T09:33:01.106Z" agent="Mozilla/5.0 (Windows NT 10.0; Win64; x64) AppleWebKit/537.36 (KHTML, like Gecko) draw.io/22.0.3 Chrome/114.0.5735.289 Electron/25.8.4 Safari/537.36" etag="9ynM9NkPuz4U1X4nb-7_" version="22.0.3" type="device">
  <diagram name="Страница — 1" id="hfzNZ1BW3enM033mQ-r6">
    <mxGraphModel dx="1434" dy="844" grid="1" gridSize="10" guides="1" tooltips="1" connect="1" arrows="1" fold="1" page="1" pageScale="1" pageWidth="827" pageHeight="1169" math="0" shadow="0">
      <root>
        <mxCell id="0" />
        <mxCell id="1" parent="0" />
        <mxCell id="cMctfjUYHGArBV0WSHqv-1" value="" style="shape=umlLifeline;perimeter=lifelinePerimeter;whiteSpace=wrap;html=1;container=1;dropTarget=0;collapsible=0;recursiveResize=0;outlineConnect=0;portConstraint=eastwest;newEdgeStyle={&quot;edgeStyle&quot;:&quot;elbowEdgeStyle&quot;,&quot;elbow&quot;:&quot;vertical&quot;,&quot;curved&quot;:0,&quot;rounded&quot;:0};participant=umlActor;" parent="1" vertex="1">
          <mxGeometry x="50" y="60" width="20" height="700" as="geometry" />
        </mxCell>
        <mxCell id="cMctfjUYHGArBV0WSHqv-6" value="" style="html=1;points=[];perimeter=orthogonalPerimeter;outlineConnect=0;targetShapes=umlLifeline;portConstraint=eastwest;newEdgeStyle={&quot;edgeStyle&quot;:&quot;elbowEdgeStyle&quot;,&quot;elbow&quot;:&quot;vertical&quot;,&quot;curved&quot;:0,&quot;rounded&quot;:0};" parent="cMctfjUYHGArBV0WSHqv-1" vertex="1">
          <mxGeometry x="5" y="80" width="10" height="440" as="geometry" />
        </mxCell>
        <mxCell id="cMctfjUYHGArBV0WSHqv-2" value="Ручное создание обращения" style="text;align=center;fontStyle=1;verticalAlign=middle;spacingLeft=3;spacingRight=3;strokeColor=none;rotatable=0;points=[[0,0.5],[1,0.5]];portConstraint=eastwest;html=1;" parent="1" vertex="1">
          <mxGeometry x="220" width="80" height="26" as="geometry" />
        </mxCell>
        <mxCell id="cMctfjUYHGArBV0WSHqv-3" value="Монолит" style="shape=umlLifeline;perimeter=lifelinePerimeter;whiteSpace=wrap;html=1;container=1;dropTarget=0;collapsible=0;recursiveResize=0;outlineConnect=0;portConstraint=eastwest;newEdgeStyle={&quot;edgeStyle&quot;:&quot;elbowEdgeStyle&quot;,&quot;elbow&quot;:&quot;vertical&quot;,&quot;curved&quot;:0,&quot;rounded&quot;:0};" parent="1" vertex="1">
          <mxGeometry x="250" y="70" width="100" height="650" as="geometry" />
        </mxCell>
        <mxCell id="cMctfjUYHGArBV0WSHqv-7" value="" style="html=1;points=[];perimeter=orthogonalPerimeter;outlineConnect=0;targetShapes=umlLifeline;portConstraint=eastwest;newEdgeStyle={&quot;edgeStyle&quot;:&quot;elbowEdgeStyle&quot;,&quot;elbow&quot;:&quot;vertical&quot;,&quot;curved&quot;:0,&quot;rounded&quot;:0};" parent="cMctfjUYHGArBV0WSHqv-3" vertex="1">
          <mxGeometry x="45" y="70" width="10" height="80" as="geometry" />
        </mxCell>
        <mxCell id="cMctfjUYHGArBV0WSHqv-13" value="" style="html=1;points=[];perimeter=orthogonalPerimeter;outlineConnect=0;targetShapes=umlLifeline;portConstraint=eastwest;newEdgeStyle={&quot;edgeStyle&quot;:&quot;elbowEdgeStyle&quot;,&quot;elbow&quot;:&quot;vertical&quot;,&quot;curved&quot;:0,&quot;rounded&quot;:0};" parent="cMctfjUYHGArBV0WSHqv-3" vertex="1">
          <mxGeometry x="45" y="180" width="10" height="50" as="geometry" />
        </mxCell>
        <mxCell id="cMctfjUYHGArBV0WSHqv-16" value="" style="html=1;points=[];perimeter=orthogonalPerimeter;outlineConnect=0;targetShapes=umlLifeline;portConstraint=eastwest;newEdgeStyle={&quot;edgeStyle&quot;:&quot;elbowEdgeStyle&quot;,&quot;elbow&quot;:&quot;vertical&quot;,&quot;curved&quot;:0,&quot;rounded&quot;:0};" parent="cMctfjUYHGArBV0WSHqv-3" vertex="1">
          <mxGeometry x="45" y="260" width="10" height="70" as="geometry" />
        </mxCell>
        <mxCell id="cMctfjUYHGArBV0WSHqv-23" value="" style="html=1;points=[];perimeter=orthogonalPerimeter;outlineConnect=0;targetShapes=umlLifeline;portConstraint=eastwest;newEdgeStyle={&quot;edgeStyle&quot;:&quot;elbowEdgeStyle&quot;,&quot;elbow&quot;:&quot;vertical&quot;,&quot;curved&quot;:0,&quot;rounded&quot;:0};" parent="cMctfjUYHGArBV0WSHqv-3" vertex="1">
          <mxGeometry x="45" y="390" width="10" height="100" as="geometry" />
        </mxCell>
        <mxCell id="cMctfjUYHGArBV0WSHqv-4" value="Сервис услуг" style="shape=umlLifeline;perimeter=lifelinePerimeter;whiteSpace=wrap;html=1;container=1;dropTarget=0;collapsible=0;recursiveResize=0;outlineConnect=0;portConstraint=eastwest;newEdgeStyle={&quot;edgeStyle&quot;:&quot;elbowEdgeStyle&quot;,&quot;elbow&quot;:&quot;vertical&quot;,&quot;curved&quot;:0,&quot;rounded&quot;:0};" parent="1" vertex="1">
          <mxGeometry x="490" y="80" width="100" height="490" as="geometry" />
        </mxCell>
        <mxCell id="cMctfjUYHGArBV0WSHqv-10" value="" style="html=1;points=[];perimeter=orthogonalPerimeter;outlineConnect=0;targetShapes=umlLifeline;portConstraint=eastwest;newEdgeStyle={&quot;edgeStyle&quot;:&quot;elbowEdgeStyle&quot;,&quot;elbow&quot;:&quot;vertical&quot;,&quot;curved&quot;:0,&quot;rounded&quot;:0};" parent="cMctfjUYHGArBV0WSHqv-4" vertex="1">
          <mxGeometry x="45" y="60" width="10" height="80" as="geometry" />
        </mxCell>
        <mxCell id="cMctfjUYHGArBV0WSHqv-20" value="" style="html=1;points=[];perimeter=orthogonalPerimeter;outlineConnect=0;targetShapes=umlLifeline;portConstraint=eastwest;newEdgeStyle={&quot;edgeStyle&quot;:&quot;elbowEdgeStyle&quot;,&quot;elbow&quot;:&quot;vertical&quot;,&quot;curved&quot;:0,&quot;rounded&quot;:0};" parent="cMctfjUYHGArBV0WSHqv-4" vertex="1">
          <mxGeometry x="45" y="260" width="10" height="50" as="geometry" />
        </mxCell>
        <mxCell id="cMctfjUYHGArBV0WSHqv-26" value="" style="html=1;points=[];perimeter=orthogonalPerimeter;outlineConnect=0;targetShapes=umlLifeline;portConstraint=eastwest;newEdgeStyle={&quot;edgeStyle&quot;:&quot;elbowEdgeStyle&quot;,&quot;elbow&quot;:&quot;vertical&quot;,&quot;curved&quot;:0,&quot;rounded&quot;:0};" parent="cMctfjUYHGArBV0WSHqv-4" vertex="1">
          <mxGeometry x="45" y="380" width="10" height="40" as="geometry" />
        </mxCell>
        <mxCell id="cMctfjUYHGArBV0WSHqv-5" value="Микросмэв" style="shape=umlLifeline;perimeter=lifelinePerimeter;whiteSpace=wrap;html=1;container=1;dropTarget=0;collapsible=0;recursiveResize=0;outlineConnect=0;portConstraint=eastwest;newEdgeStyle={&quot;edgeStyle&quot;:&quot;elbowEdgeStyle&quot;,&quot;elbow&quot;:&quot;vertical&quot;,&quot;curved&quot;:0,&quot;rounded&quot;:0};" parent="1" vertex="1">
          <mxGeometry x="740" y="130" width="100" height="510" as="geometry" />
        </mxCell>
        <mxCell id="cMctfjUYHGArBV0WSHqv-29" value="" style="html=1;points=[];perimeter=orthogonalPerimeter;outlineConnect=0;targetShapes=umlLifeline;portConstraint=eastwest;newEdgeStyle={&quot;edgeStyle&quot;:&quot;elbowEdgeStyle&quot;,&quot;elbow&quot;:&quot;vertical&quot;,&quot;curved&quot;:0,&quot;rounded&quot;:0};" parent="cMctfjUYHGArBV0WSHqv-5" vertex="1">
          <mxGeometry x="45" y="375" width="10" height="80" as="geometry" />
        </mxCell>
        <mxCell id="cMctfjUYHGArBV0WSHqv-8" value="Кнопка + в реестре обращений" style="html=1;verticalAlign=bottom;endArrow=block;edgeStyle=elbowEdgeStyle;elbow=vertical;curved=0;rounded=0;" parent="1" source="cMctfjUYHGArBV0WSHqv-6" target="cMctfjUYHGArBV0WSHqv-7" edge="1">
          <mxGeometry relative="1" as="geometry">
            <mxPoint x="225" y="140" as="sourcePoint" />
            <Array as="points">
              <mxPoint x="200" y="140" />
            </Array>
          </mxGeometry>
        </mxCell>
        <mxCell id="cMctfjUYHGArBV0WSHqv-9" value="Форма с выпадающим списком услуг" style="html=1;verticalAlign=bottom;endArrow=open;dashed=1;endSize=8;edgeStyle=elbowEdgeStyle;elbow=vertical;curved=0;rounded=0;" parent="1" source="cMctfjUYHGArBV0WSHqv-7" target="cMctfjUYHGArBV0WSHqv-6" edge="1">
          <mxGeometry relative="1" as="geometry">
            <mxPoint x="100" y="220" as="targetPoint" />
            <Array as="points">
              <mxPoint x="210" y="220" />
            </Array>
          </mxGeometry>
        </mxCell>
        <mxCell id="cMctfjUYHGArBV0WSHqv-11" value="получить список услуг и подуслуг" style="html=1;verticalAlign=bottom;endArrow=block;edgeStyle=elbowEdgeStyle;elbow=vertical;curved=0;rounded=0;" parent="1" source="cMctfjUYHGArBV0WSHqv-3" target="cMctfjUYHGArBV0WSHqv-10" edge="1">
          <mxGeometry relative="1" as="geometry">
            <mxPoint x="465" y="140" as="sourcePoint" />
            <Array as="points">
              <mxPoint x="443" y="160" />
            </Array>
          </mxGeometry>
        </mxCell>
        <mxCell id="cMctfjUYHGArBV0WSHqv-12" value="json с доступными услугами &lt;br&gt;и их подуслугами" style="html=1;verticalAlign=bottom;endArrow=open;dashed=1;endSize=8;edgeStyle=elbowEdgeStyle;elbow=vertical;curved=0;rounded=0;entryX=0.5;entryY=0.75;entryDx=0;entryDy=0;entryPerimeter=0;" parent="1" source="cMctfjUYHGArBV0WSHqv-10" target="cMctfjUYHGArBV0WSHqv-7" edge="1">
          <mxGeometry relative="1" as="geometry">
            <mxPoint x="310" y="200" as="targetPoint" />
            <Array as="points">
              <mxPoint x="440" y="200" />
            </Array>
          </mxGeometry>
        </mxCell>
        <mxCell id="cMctfjUYHGArBV0WSHqv-14" value="выбор услуги" style="html=1;verticalAlign=bottom;endArrow=block;edgeStyle=elbowEdgeStyle;elbow=vertical;curved=0;rounded=0;" parent="1" source="cMctfjUYHGArBV0WSHqv-6" target="cMctfjUYHGArBV0WSHqv-13" edge="1">
          <mxGeometry relative="1" as="geometry">
            <mxPoint x="225" y="250" as="sourcePoint" />
            <Array as="points">
              <mxPoint x="180" y="250" />
            </Array>
          </mxGeometry>
        </mxCell>
        <mxCell id="cMctfjUYHGArBV0WSHqv-15" value="Отрисовка выпадающего списка подуслуг" style="html=1;verticalAlign=bottom;endArrow=open;dashed=1;endSize=8;edgeStyle=elbowEdgeStyle;elbow=vertical;curved=0;rounded=0;" parent="1" source="cMctfjUYHGArBV0WSHqv-13" target="cMctfjUYHGArBV0WSHqv-6" edge="1">
          <mxGeometry relative="1" as="geometry">
            <mxPoint x="70" y="300" as="targetPoint" />
            <Array as="points">
              <mxPoint x="190" y="300" />
            </Array>
          </mxGeometry>
        </mxCell>
        <mxCell id="cMctfjUYHGArBV0WSHqv-17" value="Выбор подуслуги" style="html=1;verticalAlign=bottom;endArrow=block;edgeStyle=elbowEdgeStyle;elbow=vertical;curved=0;rounded=0;" parent="1" source="cMctfjUYHGArBV0WSHqv-6" target="cMctfjUYHGArBV0WSHqv-16" edge="1">
          <mxGeometry relative="1" as="geometry">
            <mxPoint x="225" y="330" as="sourcePoint" />
            <Array as="points">
              <mxPoint x="180" y="330" />
            </Array>
          </mxGeometry>
        </mxCell>
        <mxCell id="cMctfjUYHGArBV0WSHqv-18" value="Отрисовка блока профилирования" style="html=1;verticalAlign=bottom;endArrow=open;dashed=1;endSize=8;edgeStyle=elbowEdgeStyle;elbow=vertical;curved=0;rounded=0;" parent="1" source="cMctfjUYHGArBV0WSHqv-16" target="cMctfjUYHGArBV0WSHqv-6" edge="1">
          <mxGeometry relative="1" as="geometry">
            <mxPoint x="225" y="405" as="targetPoint" />
            <Array as="points">
              <mxPoint x="180" y="400" />
            </Array>
          </mxGeometry>
        </mxCell>
        <mxCell id="cMctfjUYHGArBV0WSHqv-21" value="получить информацию об этапе &lt;br&gt;профилирование нужной подуслуги" style="html=1;verticalAlign=bottom;endArrow=block;edgeStyle=elbowEdgeStyle;elbow=vertical;curved=0;rounded=0;" parent="1" source="cMctfjUYHGArBV0WSHqv-16" target="cMctfjUYHGArBV0WSHqv-20" edge="1">
          <mxGeometry relative="1" as="geometry">
            <mxPoint x="465" y="330" as="sourcePoint" />
            <Array as="points">
              <mxPoint x="420" y="340" />
            </Array>
          </mxGeometry>
        </mxCell>
        <mxCell id="cMctfjUYHGArBV0WSHqv-22" value="json с информацией о вопросах и ответах&lt;br&gt;для заявителя" style="html=1;verticalAlign=bottom;endArrow=open;dashed=1;endSize=8;edgeStyle=elbowEdgeStyle;elbow=vertical;curved=0;rounded=0;" parent="1" target="cMctfjUYHGArBV0WSHqv-16" edge="1">
          <mxGeometry relative="1" as="geometry">
            <mxPoint x="310" y="390" as="targetPoint" />
            <mxPoint x="530" y="390.3" as="sourcePoint" />
          </mxGeometry>
        </mxCell>
        <mxCell id="cMctfjUYHGArBV0WSHqv-24" value="Заполнение профилирования &lt;br&gt;+ кнопка сохранить" style="html=1;verticalAlign=bottom;endArrow=block;edgeStyle=elbowEdgeStyle;elbow=vertical;curved=0;rounded=0;" parent="1" source="cMctfjUYHGArBV0WSHqv-1" target="cMctfjUYHGArBV0WSHqv-23" edge="1">
          <mxGeometry relative="1" as="geometry">
            <mxPoint x="225" y="430" as="sourcePoint" />
            <Array as="points">
              <mxPoint x="280" y="460" />
            </Array>
          </mxGeometry>
        </mxCell>
        <mxCell id="cMctfjUYHGArBV0WSHqv-25" value="Запись создана в реестре" style="html=1;verticalAlign=bottom;endArrow=open;dashed=1;endSize=8;edgeStyle=elbowEdgeStyle;elbow=vertical;curved=0;rounded=0;" parent="1" source="cMctfjUYHGArBV0WSHqv-23" target="cMctfjUYHGArBV0WSHqv-6" edge="1">
          <mxGeometry relative="1" as="geometry">
            <mxPoint x="225" y="505" as="targetPoint" />
            <Array as="points">
              <mxPoint x="190" y="510" />
            </Array>
          </mxGeometry>
        </mxCell>
        <mxCell id="cMctfjUYHGArBV0WSHqv-27" value="получить информацию о событиях &lt;br&gt;по окончанию этапа профилирования" style="html=1;verticalAlign=bottom;endArrow=block;edgeStyle=elbowEdgeStyle;elbow=vertical;curved=0;rounded=0;" parent="1" source="cMctfjUYHGArBV0WSHqv-3" target="cMctfjUYHGArBV0WSHqv-26" edge="1">
          <mxGeometry relative="1" as="geometry">
            <mxPoint x="465" y="460" as="sourcePoint" />
            <Array as="points">
              <mxPoint x="450" y="460" />
            </Array>
          </mxGeometry>
        </mxCell>
        <mxCell id="cMctfjUYHGArBV0WSHqv-28" value="json со списком событий" style="html=1;verticalAlign=bottom;endArrow=open;dashed=1;endSize=8;edgeStyle=elbowEdgeStyle;elbow=vertical;curved=0;rounded=0;" parent="1" source="cMctfjUYHGArBV0WSHqv-26" target="cMctfjUYHGArBV0WSHqv-23" edge="1">
          <mxGeometry relative="1" as="geometry">
            <mxPoint x="310" y="500" as="targetPoint" />
            <Array as="points">
              <mxPoint x="443" y="500" />
            </Array>
          </mxGeometry>
        </mxCell>
        <mxCell id="cMctfjUYHGArBV0WSHqv-30" value="Запрос на изменение статуса обращения (UC 8)" style="html=1;verticalAlign=bottom;endArrow=block;edgeStyle=elbowEdgeStyle;elbow=vertical;curved=0;rounded=0;" parent="1" source="cMctfjUYHGArBV0WSHqv-23" target="cMctfjUYHGArBV0WSHqv-29" edge="1">
          <mxGeometry x="0.3608" relative="1" as="geometry">
            <mxPoint x="310" y="520" as="sourcePoint" />
            <Array as="points">
              <mxPoint x="570" y="520" />
            </Array>
            <mxPoint as="offset" />
          </mxGeometry>
        </mxCell>
        <mxCell id="cMctfjUYHGArBV0WSHqv-31" value="200" style="html=1;verticalAlign=bottom;endArrow=open;dashed=1;endSize=8;edgeStyle=elbowEdgeStyle;elbow=vertical;curved=0;rounded=0;" parent="1" source="cMctfjUYHGArBV0WSHqv-29" target="cMctfjUYHGArBV0WSHqv-23" edge="1">
          <mxGeometry x="-0.3125" relative="1" as="geometry">
            <mxPoint x="715" y="580" as="targetPoint" />
            <Array as="points">
              <mxPoint x="600" y="560" />
            </Array>
            <mxPoint as="offset" />
          </mxGeometry>
        </mxCell>
        <mxCell id="cMctfjUYHGArBV0WSHqv-34" value="Автоматическое создание обращения" style="text;align=center;fontStyle=1;verticalAlign=middle;spacingLeft=3;spacingRight=3;strokeColor=none;rotatable=0;points=[[0,0.5],[1,0.5]];portConstraint=eastwest;html=1;" parent="1" vertex="1">
          <mxGeometry x="1100" y="26" width="80" height="26" as="geometry" />
        </mxCell>
        <mxCell id="cMctfjUYHGArBV0WSHqv-35" value="Монолит" style="shape=umlLifeline;perimeter=lifelinePerimeter;whiteSpace=wrap;html=1;container=1;dropTarget=0;collapsible=0;recursiveResize=0;outlineConnect=0;portConstraint=eastwest;newEdgeStyle={&quot;edgeStyle&quot;:&quot;elbowEdgeStyle&quot;,&quot;elbow&quot;:&quot;vertical&quot;,&quot;curved&quot;:0,&quot;rounded&quot;:0};" parent="1" vertex="1">
          <mxGeometry x="1130" y="96" width="100" height="650" as="geometry" />
        </mxCell>
        <mxCell id="cMctfjUYHGArBV0WSHqv-36" value="" style="html=1;points=[];perimeter=orthogonalPerimeter;outlineConnect=0;targetShapes=umlLifeline;portConstraint=eastwest;newEdgeStyle={&quot;edgeStyle&quot;:&quot;elbowEdgeStyle&quot;,&quot;elbow&quot;:&quot;vertical&quot;,&quot;curved&quot;:0,&quot;rounded&quot;:0};" parent="cMctfjUYHGArBV0WSHqv-35" vertex="1">
          <mxGeometry x="45" y="70" width="10" height="90" as="geometry" />
        </mxCell>
        <mxCell id="cMctfjUYHGArBV0WSHqv-65" value="" style="html=1;points=[];perimeter=orthogonalPerimeter;outlineConnect=0;targetShapes=umlLifeline;portConstraint=eastwest;newEdgeStyle={&quot;edgeStyle&quot;:&quot;elbowEdgeStyle&quot;,&quot;elbow&quot;:&quot;vertical&quot;,&quot;curved&quot;:0,&quot;rounded&quot;:0};" parent="cMctfjUYHGArBV0WSHqv-35" vertex="1">
          <mxGeometry x="45" y="169" width="10" height="40" as="geometry" />
        </mxCell>
        <mxCell id="cMctfjUYHGArBV0WSHqv-66" value="Сопоставление пришедшего заявления&lt;br&gt;с имеющимися услугами" style="html=1;align=left;spacingLeft=2;endArrow=block;rounded=0;edgeStyle=orthogonalEdgeStyle;curved=0;rounded=0;" parent="cMctfjUYHGArBV0WSHqv-35" source="cMctfjUYHGArBV0WSHqv-36" target="cMctfjUYHGArBV0WSHqv-65" edge="1">
          <mxGeometry relative="1" as="geometry">
            <mxPoint x="50" y="149" as="sourcePoint" />
            <Array as="points">
              <mxPoint x="80" y="154" />
              <mxPoint x="80" y="179" />
            </Array>
          </mxGeometry>
        </mxCell>
        <mxCell id="cMctfjUYHGArBV0WSHqv-67" value="" style="html=1;points=[];perimeter=orthogonalPerimeter;outlineConnect=0;targetShapes=umlLifeline;portConstraint=eastwest;newEdgeStyle={&quot;edgeStyle&quot;:&quot;elbowEdgeStyle&quot;,&quot;elbow&quot;:&quot;vertical&quot;,&quot;curved&quot;:0,&quot;rounded&quot;:0};" parent="cMctfjUYHGArBV0WSHqv-35" vertex="1">
          <mxGeometry x="45" y="229" width="10" height="40" as="geometry" />
        </mxCell>
        <mxCell id="cMctfjUYHGArBV0WSHqv-68" value="Связь с контрагентом (возможно&lt;br&gt;не МВП)" style="html=1;align=left;spacingLeft=2;endArrow=block;rounded=0;edgeStyle=orthogonalEdgeStyle;curved=0;rounded=0;" parent="cMctfjUYHGArBV0WSHqv-35" target="cMctfjUYHGArBV0WSHqv-67" edge="1">
          <mxGeometry relative="1" as="geometry">
            <mxPoint x="50" y="209" as="sourcePoint" />
            <Array as="points">
              <mxPoint x="80" y="239" />
            </Array>
          </mxGeometry>
        </mxCell>
        <mxCell id="cMctfjUYHGArBV0WSHqv-69" value="" style="html=1;points=[];perimeter=orthogonalPerimeter;outlineConnect=0;targetShapes=umlLifeline;portConstraint=eastwest;newEdgeStyle={&quot;edgeStyle&quot;:&quot;elbowEdgeStyle&quot;,&quot;elbow&quot;:&quot;vertical&quot;,&quot;curved&quot;:0,&quot;rounded&quot;:0};" parent="cMctfjUYHGArBV0WSHqv-35" vertex="1">
          <mxGeometry x="45" y="289" width="10" height="40" as="geometry" />
        </mxCell>
        <mxCell id="cMctfjUYHGArBV0WSHqv-70" value="Создание записи в БД" style="html=1;align=left;spacingLeft=2;endArrow=block;rounded=0;edgeStyle=orthogonalEdgeStyle;curved=0;rounded=0;" parent="cMctfjUYHGArBV0WSHqv-35" target="cMctfjUYHGArBV0WSHqv-69" edge="1">
          <mxGeometry relative="1" as="geometry">
            <mxPoint x="50" y="269" as="sourcePoint" />
            <Array as="points">
              <mxPoint x="80" y="299" />
            </Array>
          </mxGeometry>
        </mxCell>
        <mxCell id="cMctfjUYHGArBV0WSHqv-71" value="" style="html=1;points=[];perimeter=orthogonalPerimeter;outlineConnect=0;targetShapes=umlLifeline;portConstraint=eastwest;newEdgeStyle={&quot;edgeStyle&quot;:&quot;elbowEdgeStyle&quot;,&quot;elbow&quot;:&quot;vertical&quot;,&quot;curved&quot;:0,&quot;rounded&quot;:0};" parent="cMctfjUYHGArBV0WSHqv-35" vertex="1">
          <mxGeometry x="45" y="349" width="10" height="40" as="geometry" />
        </mxCell>
        <mxCell id="cMctfjUYHGArBV0WSHqv-72" value="оповещение пользователей (возможно&lt;br&gt;не МВП)" style="html=1;align=left;spacingLeft=2;endArrow=block;rounded=0;edgeStyle=orthogonalEdgeStyle;curved=0;rounded=0;" parent="cMctfjUYHGArBV0WSHqv-35" target="cMctfjUYHGArBV0WSHqv-71" edge="1">
          <mxGeometry relative="1" as="geometry">
            <mxPoint x="50" y="329" as="sourcePoint" />
            <Array as="points">
              <mxPoint x="80" y="359" />
            </Array>
          </mxGeometry>
        </mxCell>
        <mxCell id="cMctfjUYHGArBV0WSHqv-40" value="Сервис услуг" style="shape=umlLifeline;perimeter=lifelinePerimeter;whiteSpace=wrap;html=1;container=1;dropTarget=0;collapsible=0;recursiveResize=0;outlineConnect=0;portConstraint=eastwest;newEdgeStyle={&quot;edgeStyle&quot;:&quot;elbowEdgeStyle&quot;,&quot;elbow&quot;:&quot;vertical&quot;,&quot;curved&quot;:0,&quot;rounded&quot;:0};" parent="1" vertex="1">
          <mxGeometry x="1370" y="106" width="100" height="490" as="geometry" />
        </mxCell>
        <mxCell id="cMctfjUYHGArBV0WSHqv-41" value="" style="html=1;points=[];perimeter=orthogonalPerimeter;outlineConnect=0;targetShapes=umlLifeline;portConstraint=eastwest;newEdgeStyle={&quot;edgeStyle&quot;:&quot;elbowEdgeStyle&quot;,&quot;elbow&quot;:&quot;vertical&quot;,&quot;curved&quot;:0,&quot;rounded&quot;:0};" parent="cMctfjUYHGArBV0WSHqv-40" vertex="1">
          <mxGeometry x="45" y="60" width="10" height="80" as="geometry" />
        </mxCell>
        <mxCell id="cMctfjUYHGArBV0WSHqv-44" value="Микросмэв" style="shape=umlLifeline;perimeter=lifelinePerimeter;whiteSpace=wrap;html=1;container=1;dropTarget=0;collapsible=0;recursiveResize=0;outlineConnect=0;portConstraint=eastwest;newEdgeStyle={&quot;edgeStyle&quot;:&quot;elbowEdgeStyle&quot;,&quot;elbow&quot;:&quot;vertical&quot;,&quot;curved&quot;:0,&quot;rounded&quot;:0};" parent="1" vertex="1">
          <mxGeometry x="880" y="86" width="100" height="510" as="geometry" />
        </mxCell>
        <mxCell id="cMctfjUYHGArBV0WSHqv-45" value="" style="html=1;points=[];perimeter=orthogonalPerimeter;outlineConnect=0;targetShapes=umlLifeline;portConstraint=eastwest;newEdgeStyle={&quot;edgeStyle&quot;:&quot;elbowEdgeStyle&quot;,&quot;elbow&quot;:&quot;vertical&quot;,&quot;curved&quot;:0,&quot;rounded&quot;:0};" parent="cMctfjUYHGArBV0WSHqv-44" vertex="1">
          <mxGeometry x="45" y="60" width="10" height="380" as="geometry" />
        </mxCell>
        <mxCell id="cMctfjUYHGArBV0WSHqv-48" value="получить список услуг и подуслуг" style="html=1;verticalAlign=bottom;endArrow=block;edgeStyle=elbowEdgeStyle;elbow=vertical;curved=0;rounded=0;" parent="1" source="cMctfjUYHGArBV0WSHqv-35" target="cMctfjUYHGArBV0WSHqv-41" edge="1">
          <mxGeometry relative="1" as="geometry">
            <mxPoint x="1345" y="166" as="sourcePoint" />
            <Array as="points">
              <mxPoint x="1330" y="200" />
            </Array>
          </mxGeometry>
        </mxCell>
        <mxCell id="cMctfjUYHGArBV0WSHqv-49" value="json с доступными услугами &lt;br&gt;и их подуслугами" style="html=1;verticalAlign=bottom;endArrow=open;dashed=1;endSize=8;edgeStyle=elbowEdgeStyle;elbow=vertical;curved=0;rounded=0;" parent="1" source="cMctfjUYHGArBV0WSHqv-41" target="cMctfjUYHGArBV0WSHqv-36" edge="1">
          <mxGeometry relative="1" as="geometry">
            <mxPoint x="1190" y="226" as="targetPoint" />
            <Array as="points">
              <mxPoint x="1320" y="240" />
            </Array>
          </mxGeometry>
        </mxCell>
        <mxCell id="cMctfjUYHGArBV0WSHqv-62" value="Вебкхук &quot;пришло заявление из СМЭВ&quot;" style="html=1;verticalAlign=bottom;endArrow=block;edgeStyle=elbowEdgeStyle;elbow=vertical;curved=0;rounded=0;" parent="1" source="cMctfjUYHGArBV0WSHqv-45" target="cMctfjUYHGArBV0WSHqv-36" edge="1">
          <mxGeometry width="80" relative="1" as="geometry">
            <mxPoint x="1010" y="170" as="sourcePoint" />
            <mxPoint x="1090" y="150" as="targetPoint" />
            <Array as="points">
              <mxPoint x="1070" y="170" />
            </Array>
          </mxGeometry>
        </mxCell>
        <mxCell id="cMctfjUYHGArBV0WSHqv-63" style="edgeStyle=elbowEdgeStyle;rounded=0;orthogonalLoop=1;jettySize=auto;html=1;elbow=vertical;curved=0;" parent="1" edge="1">
          <mxGeometry relative="1" as="geometry">
            <mxPoint x="1175" y="189.99809523809517" as="sourcePoint" />
            <mxPoint x="935" y="189.99809523809517" as="targetPoint" />
          </mxGeometry>
        </mxCell>
        <mxCell id="cMctfjUYHGArBV0WSHqv-64" value="200" style="edgeLabel;html=1;align=center;verticalAlign=middle;resizable=0;points=[];" parent="cMctfjUYHGArBV0WSHqv-63" vertex="1" connectable="0">
          <mxGeometry x="0.1548" relative="1" as="geometry">
            <mxPoint as="offset" />
          </mxGeometry>
        </mxCell>
        <mxCell id="cMctfjUYHGArBV0WSHqv-73" value="Автоматическая отправка статусов" style="text;align=center;fontStyle=1;verticalAlign=middle;spacingLeft=3;spacingRight=3;strokeColor=none;rotatable=0;points=[[0,0.5],[1,0.5]];portConstraint=eastwest;html=1;" parent="1" vertex="1">
          <mxGeometry x="1950" y="44" width="80" height="26" as="geometry" />
        </mxCell>
        <mxCell id="cMctfjUYHGArBV0WSHqv-74" value="Монолит" style="shape=umlLifeline;perimeter=lifelinePerimeter;whiteSpace=wrap;html=1;container=1;dropTarget=0;collapsible=0;recursiveResize=0;outlineConnect=0;portConstraint=eastwest;newEdgeStyle={&quot;edgeStyle&quot;:&quot;elbowEdgeStyle&quot;,&quot;elbow&quot;:&quot;vertical&quot;,&quot;curved&quot;:0,&quot;rounded&quot;:0};" parent="1" vertex="1">
          <mxGeometry x="1790" y="130" width="100" height="650" as="geometry" />
        </mxCell>
        <mxCell id="cMctfjUYHGArBV0WSHqv-75" value="" style="html=1;points=[];perimeter=orthogonalPerimeter;outlineConnect=0;targetShapes=umlLifeline;portConstraint=eastwest;newEdgeStyle={&quot;edgeStyle&quot;:&quot;elbowEdgeStyle&quot;,&quot;elbow&quot;:&quot;vertical&quot;,&quot;curved&quot;:0,&quot;rounded&quot;:0};" parent="cMctfjUYHGArBV0WSHqv-74" vertex="1">
          <mxGeometry x="45" y="70" width="10" height="90" as="geometry" />
        </mxCell>
        <mxCell id="cMctfjUYHGArBV0WSHqv-76" value="" style="html=1;points=[];perimeter=orthogonalPerimeter;outlineConnect=0;targetShapes=umlLifeline;portConstraint=eastwest;newEdgeStyle={&quot;edgeStyle&quot;:&quot;elbowEdgeStyle&quot;,&quot;elbow&quot;:&quot;vertical&quot;,&quot;curved&quot;:0,&quot;rounded&quot;:0};" parent="cMctfjUYHGArBV0WSHqv-74" vertex="1">
          <mxGeometry x="45" y="169" width="10" height="121" as="geometry" />
        </mxCell>
        <mxCell id="cMctfjUYHGArBV0WSHqv-77" value="Обработка событий по списку (нас &lt;br&gt;интересует событие &quot;смена статуса&quot;)" style="html=1;align=left;spacingLeft=2;endArrow=block;rounded=0;edgeStyle=orthogonalEdgeStyle;curved=0;rounded=0;" parent="cMctfjUYHGArBV0WSHqv-74" source="cMctfjUYHGArBV0WSHqv-75" target="cMctfjUYHGArBV0WSHqv-76" edge="1">
          <mxGeometry relative="1" as="geometry">
            <mxPoint x="50" y="149" as="sourcePoint" />
            <Array as="points">
              <mxPoint x="80" y="154" />
              <mxPoint x="80" y="179" />
            </Array>
          </mxGeometry>
        </mxCell>
        <mxCell id="cMctfjUYHGArBV0WSHqv-96" value="" style="html=1;points=[];perimeter=orthogonalPerimeter;outlineConnect=0;targetShapes=umlLifeline;portConstraint=eastwest;newEdgeStyle={&quot;edgeStyle&quot;:&quot;elbowEdgeStyle&quot;,&quot;elbow&quot;:&quot;vertical&quot;,&quot;curved&quot;:0,&quot;rounded&quot;:0};" parent="cMctfjUYHGArBV0WSHqv-74" vertex="1">
          <mxGeometry x="45" y="210" width="10" height="40" as="geometry" />
        </mxCell>
        <mxCell id="cMctfjUYHGArBV0WSHqv-97" value="Смена статуса у записи в БД" style="html=1;align=left;spacingLeft=2;endArrow=block;rounded=0;edgeStyle=orthogonalEdgeStyle;curved=0;rounded=0;" parent="cMctfjUYHGArBV0WSHqv-74" target="cMctfjUYHGArBV0WSHqv-96" edge="1">
          <mxGeometry relative="1" as="geometry">
            <mxPoint x="55" y="190" as="sourcePoint" />
            <Array as="points">
              <mxPoint x="85" y="220" />
            </Array>
          </mxGeometry>
        </mxCell>
        <mxCell id="cMctfjUYHGArBV0WSHqv-84" value="Сервис услуг" style="shape=umlLifeline;perimeter=lifelinePerimeter;whiteSpace=wrap;html=1;container=1;dropTarget=0;collapsible=0;recursiveResize=0;outlineConnect=0;portConstraint=eastwest;newEdgeStyle={&quot;edgeStyle&quot;:&quot;elbowEdgeStyle&quot;,&quot;elbow&quot;:&quot;vertical&quot;,&quot;curved&quot;:0,&quot;rounded&quot;:0};" parent="1" vertex="1">
          <mxGeometry x="2030" y="140" width="100" height="490" as="geometry" />
        </mxCell>
        <mxCell id="cMctfjUYHGArBV0WSHqv-85" value="" style="html=1;points=[];perimeter=orthogonalPerimeter;outlineConnect=0;targetShapes=umlLifeline;portConstraint=eastwest;newEdgeStyle={&quot;edgeStyle&quot;:&quot;elbowEdgeStyle&quot;,&quot;elbow&quot;:&quot;vertical&quot;,&quot;curved&quot;:0,&quot;rounded&quot;:0};" parent="cMctfjUYHGArBV0WSHqv-84" vertex="1">
          <mxGeometry x="45" y="60" width="10" height="80" as="geometry" />
        </mxCell>
        <mxCell id="cMctfjUYHGArBV0WSHqv-86" value="Микросмэв" style="shape=umlLifeline;perimeter=lifelinePerimeter;whiteSpace=wrap;html=1;container=1;dropTarget=0;collapsible=0;recursiveResize=0;outlineConnect=0;portConstraint=eastwest;newEdgeStyle={&quot;edgeStyle&quot;:&quot;elbowEdgeStyle&quot;,&quot;elbow&quot;:&quot;vertical&quot;,&quot;curved&quot;:0,&quot;rounded&quot;:0};" parent="1" vertex="1">
          <mxGeometry x="2240" y="130" width="100" height="510" as="geometry" />
        </mxCell>
        <mxCell id="cMctfjUYHGArBV0WSHqv-93" value="" style="html=1;points=[];perimeter=orthogonalPerimeter;outlineConnect=0;targetShapes=umlLifeline;portConstraint=eastwest;newEdgeStyle={&quot;edgeStyle&quot;:&quot;elbowEdgeStyle&quot;,&quot;elbow&quot;:&quot;vertical&quot;,&quot;curved&quot;:0,&quot;rounded&quot;:0};" parent="cMctfjUYHGArBV0WSHqv-86" vertex="1">
          <mxGeometry x="45" y="200" width="10" height="80" as="geometry" />
        </mxCell>
        <mxCell id="cMctfjUYHGArBV0WSHqv-88" value="получить список событий &lt;br&gt;по окончанию этапа" style="html=1;verticalAlign=bottom;endArrow=block;edgeStyle=elbowEdgeStyle;elbow=vertical;curved=0;rounded=0;" parent="1" source="cMctfjUYHGArBV0WSHqv-74" target="cMctfjUYHGArBV0WSHqv-85" edge="1">
          <mxGeometry relative="1" as="geometry">
            <mxPoint x="2005" y="200" as="sourcePoint" />
            <Array as="points">
              <mxPoint x="1990" y="234" />
            </Array>
          </mxGeometry>
        </mxCell>
        <mxCell id="cMctfjUYHGArBV0WSHqv-89" value="json со списком событий" style="html=1;verticalAlign=bottom;endArrow=open;dashed=1;endSize=8;edgeStyle=elbowEdgeStyle;elbow=vertical;curved=0;rounded=0;" parent="1" source="cMctfjUYHGArBV0WSHqv-85" target="cMctfjUYHGArBV0WSHqv-75" edge="1">
          <mxGeometry relative="1" as="geometry">
            <mxPoint x="1850" y="260" as="targetPoint" />
            <Array as="points">
              <mxPoint x="1980" y="274" />
            </Array>
          </mxGeometry>
        </mxCell>
        <mxCell id="cMctfjUYHGArBV0WSHqv-94" value="Отправка запроса на смену статуса&lt;br&gt;(статус фигурирует в событии)" style="html=1;verticalAlign=bottom;endArrow=block;edgeStyle=elbowEdgeStyle;elbow=vertical;curved=0;rounded=0;" parent="1" edge="1">
          <mxGeometry x="0.5227" relative="1" as="geometry">
            <mxPoint x="1845" y="380" as="sourcePoint" />
            <mxPoint x="2285" y="380" as="targetPoint" />
            <Array as="points">
              <mxPoint x="1850" y="380" />
            </Array>
            <mxPoint as="offset" />
          </mxGeometry>
        </mxCell>
        <mxCell id="cMctfjUYHGArBV0WSHqv-95" value="200" style="html=1;verticalAlign=bottom;endArrow=open;dashed=1;endSize=8;edgeStyle=elbowEdgeStyle;elbow=vertical;curved=0;rounded=0;" parent="1" edge="1">
          <mxGeometry relative="1" as="geometry">
            <mxPoint x="1845" y="399.9971428571429" as="targetPoint" />
            <mxPoint x="2285" y="399.9971428571429" as="sourcePoint" />
          </mxGeometry>
        </mxCell>
        <mxCell id="cMctfjUYHGArBV0WSHqv-98" value="Монолит" style="shape=umlLifeline;perimeter=lifelinePerimeter;whiteSpace=wrap;html=1;container=1;dropTarget=0;collapsible=0;recursiveResize=0;outlineConnect=0;portConstraint=eastwest;newEdgeStyle={&quot;edgeStyle&quot;:&quot;elbowEdgeStyle&quot;,&quot;elbow&quot;:&quot;vertical&quot;,&quot;curved&quot;:0,&quot;rounded&quot;:0};" parent="1" vertex="1">
          <mxGeometry x="2800" y="142.5" width="100" height="637.5" as="geometry" />
        </mxCell>
        <mxCell id="cMctfjUYHGArBV0WSHqv-99" value="" style="html=1;points=[];perimeter=orthogonalPerimeter;outlineConnect=0;targetShapes=umlLifeline;portConstraint=eastwest;newEdgeStyle={&quot;edgeStyle&quot;:&quot;elbowEdgeStyle&quot;,&quot;elbow&quot;:&quot;vertical&quot;,&quot;curved&quot;:0,&quot;rounded&quot;:0};" parent="cMctfjUYHGArBV0WSHqv-98" vertex="1">
          <mxGeometry x="45" y="70" width="10" height="90" as="geometry" />
        </mxCell>
        <mxCell id="cMctfjUYHGArBV0WSHqv-100" value="" style="html=1;points=[];perimeter=orthogonalPerimeter;outlineConnect=0;targetShapes=umlLifeline;portConstraint=eastwest;newEdgeStyle={&quot;edgeStyle&quot;:&quot;elbowEdgeStyle&quot;,&quot;elbow&quot;:&quot;vertical&quot;,&quot;curved&quot;:0,&quot;rounded&quot;:0};" parent="cMctfjUYHGArBV0WSHqv-98" vertex="1">
          <mxGeometry x="45" y="169" width="10" height="111" as="geometry" />
        </mxCell>
        <mxCell id="cMctfjUYHGArBV0WSHqv-122" value="" style="html=1;points=[];perimeter=orthogonalPerimeter;outlineConnect=0;targetShapes=umlLifeline;portConstraint=eastwest;newEdgeStyle={&quot;edgeStyle&quot;:&quot;elbowEdgeStyle&quot;,&quot;elbow&quot;:&quot;vertical&quot;,&quot;curved&quot;:0,&quot;rounded&quot;:0};" parent="cMctfjUYHGArBV0WSHqv-98" vertex="1">
          <mxGeometry x="45" y="167.5" width="10" height="40" as="geometry" />
        </mxCell>
        <mxCell id="cMctfjUYHGArBV0WSHqv-123" value="Сработал тригер на автоматическую&lt;br&gt;&amp;nbsp;отправку запросов" style="html=1;align=left;spacingLeft=2;endArrow=block;rounded=0;edgeStyle=orthogonalEdgeStyle;curved=0;rounded=0;" parent="cMctfjUYHGArBV0WSHqv-98" source="cMctfjUYHGArBV0WSHqv-99" target="cMctfjUYHGArBV0WSHqv-122" edge="1">
          <mxGeometry relative="1" as="geometry">
            <mxPoint x="50" y="147.5" as="sourcePoint" />
            <Array as="points">
              <mxPoint x="80" y="158" />
              <mxPoint x="80" y="178" />
            </Array>
          </mxGeometry>
        </mxCell>
        <mxCell id="cMctfjUYHGArBV0WSHqv-128" value="" style="html=1;points=[];perimeter=orthogonalPerimeter;outlineConnect=0;targetShapes=umlLifeline;portConstraint=eastwest;newEdgeStyle={&quot;edgeStyle&quot;:&quot;elbowEdgeStyle&quot;,&quot;elbow&quot;:&quot;vertical&quot;,&quot;curved&quot;:0,&quot;rounded&quot;:0};" parent="cMctfjUYHGArBV0WSHqv-98" vertex="1">
          <mxGeometry x="45" y="337.5" width="10" height="52.5" as="geometry" />
        </mxCell>
        <mxCell id="cMctfjUYHGArBV0WSHqv-141" value="" style="html=1;points=[];perimeter=orthogonalPerimeter;outlineConnect=0;targetShapes=umlLifeline;portConstraint=eastwest;newEdgeStyle={&quot;edgeStyle&quot;:&quot;elbowEdgeStyle&quot;,&quot;elbow&quot;:&quot;vertical&quot;,&quot;curved&quot;:0,&quot;rounded&quot;:0};" parent="cMctfjUYHGArBV0WSHqv-98" vertex="1">
          <mxGeometry x="45" y="557.5" width="10" height="47.5" as="geometry" />
        </mxCell>
        <mxCell id="cMctfjUYHGArBV0WSHqv-104" value="Сервис услуг" style="shape=umlLifeline;perimeter=lifelinePerimeter;whiteSpace=wrap;html=1;container=1;dropTarget=0;collapsible=0;recursiveResize=0;outlineConnect=0;portConstraint=eastwest;newEdgeStyle={&quot;edgeStyle&quot;:&quot;elbowEdgeStyle&quot;,&quot;elbow&quot;:&quot;vertical&quot;,&quot;curved&quot;:0,&quot;rounded&quot;:0};" parent="1" vertex="1">
          <mxGeometry x="3040" y="152.5" width="100" height="617.5" as="geometry" />
        </mxCell>
        <mxCell id="cMctfjUYHGArBV0WSHqv-105" value="" style="html=1;points=[];perimeter=orthogonalPerimeter;outlineConnect=0;targetShapes=umlLifeline;portConstraint=eastwest;newEdgeStyle={&quot;edgeStyle&quot;:&quot;elbowEdgeStyle&quot;,&quot;elbow&quot;:&quot;vertical&quot;,&quot;curved&quot;:0,&quot;rounded&quot;:0};" parent="cMctfjUYHGArBV0WSHqv-104" vertex="1">
          <mxGeometry x="45" y="60" width="10" height="80" as="geometry" />
        </mxCell>
        <mxCell id="cMctfjUYHGArBV0WSHqv-106" value="Микросмэв" style="shape=umlLifeline;perimeter=lifelinePerimeter;whiteSpace=wrap;html=1;container=1;dropTarget=0;collapsible=0;recursiveResize=0;outlineConnect=0;portConstraint=eastwest;newEdgeStyle={&quot;edgeStyle&quot;:&quot;elbowEdgeStyle&quot;,&quot;elbow&quot;:&quot;vertical&quot;,&quot;curved&quot;:0,&quot;rounded&quot;:0};" parent="1" vertex="1">
          <mxGeometry x="3250" y="142.5" width="100" height="510" as="geometry" />
        </mxCell>
        <mxCell id="cMctfjUYHGArBV0WSHqv-107" value="" style="html=1;points=[];perimeter=orthogonalPerimeter;outlineConnect=0;targetShapes=umlLifeline;portConstraint=eastwest;newEdgeStyle={&quot;edgeStyle&quot;:&quot;elbowEdgeStyle&quot;,&quot;elbow&quot;:&quot;vertical&quot;,&quot;curved&quot;:0,&quot;rounded&quot;:0};" parent="cMctfjUYHGArBV0WSHqv-106" vertex="1">
          <mxGeometry x="45" y="200" width="10" height="80" as="geometry" />
        </mxCell>
        <mxCell id="cMctfjUYHGArBV0WSHqv-131" value="" style="html=1;points=[];perimeter=orthogonalPerimeter;outlineConnect=0;targetShapes=umlLifeline;portConstraint=eastwest;newEdgeStyle={&quot;edgeStyle&quot;:&quot;elbowEdgeStyle&quot;,&quot;elbow&quot;:&quot;vertical&quot;,&quot;curved&quot;:0,&quot;rounded&quot;:0};" parent="cMctfjUYHGArBV0WSHqv-106" vertex="1">
          <mxGeometry x="45" y="347.5" width="10" height="32.5" as="geometry" />
        </mxCell>
        <mxCell id="cMctfjUYHGArBV0WSHqv-108" value="получить информацию по этапу&amp;nbsp;&lt;br&gt;&quot;Межведомственные запросы&quot;" style="html=1;verticalAlign=bottom;endArrow=block;edgeStyle=elbowEdgeStyle;elbow=vertical;curved=0;rounded=0;" parent="1" source="cMctfjUYHGArBV0WSHqv-98" target="cMctfjUYHGArBV0WSHqv-105" edge="1">
          <mxGeometry relative="1" as="geometry">
            <mxPoint x="3015" y="212.5" as="sourcePoint" />
            <Array as="points">
              <mxPoint x="3000" y="246.5" />
            </Array>
          </mxGeometry>
        </mxCell>
        <mxCell id="cMctfjUYHGArBV0WSHqv-109" value="json со всей информацией" style="html=1;verticalAlign=bottom;endArrow=open;dashed=1;endSize=8;edgeStyle=elbowEdgeStyle;elbow=vertical;curved=0;rounded=0;" parent="1" source="cMctfjUYHGArBV0WSHqv-105" target="cMctfjUYHGArBV0WSHqv-99" edge="1">
          <mxGeometry relative="1" as="geometry">
            <mxPoint x="2860" y="272.5" as="targetPoint" />
            <Array as="points">
              <mxPoint x="2990" y="286.5" />
            </Array>
          </mxGeometry>
        </mxCell>
        <mxCell id="cMctfjUYHGArBV0WSHqv-110" value="отправка запроса&amp;nbsp;" style="html=1;verticalAlign=bottom;endArrow=block;edgeStyle=elbowEdgeStyle;elbow=vertical;curved=0;rounded=0;" parent="1" edge="1">
          <mxGeometry x="-0.2045" y="1" relative="1" as="geometry">
            <mxPoint x="2855" y="350.76" as="sourcePoint" />
            <mxPoint x="3295" y="350.76" as="targetPoint" />
            <Array as="points">
              <mxPoint x="2860" y="350.76" />
            </Array>
            <mxPoint as="offset" />
          </mxGeometry>
        </mxCell>
        <mxCell id="cMctfjUYHGArBV0WSHqv-111" value="200" style="html=1;verticalAlign=bottom;endArrow=open;dashed=1;endSize=8;edgeStyle=elbowEdgeStyle;elbow=vertical;curved=0;rounded=0;" parent="1" edge="1">
          <mxGeometry x="0.2045" relative="1" as="geometry">
            <mxPoint x="2855" y="412.4971428571429" as="targetPoint" />
            <mxPoint x="3295" y="412.4971428571429" as="sourcePoint" />
            <mxPoint as="offset" />
          </mxGeometry>
        </mxCell>
        <mxCell id="cMctfjUYHGArBV0WSHqv-112" value="Отправка межвед запросов" style="text;align=center;fontStyle=1;verticalAlign=middle;spacingLeft=3;spacingRight=3;strokeColor=none;rotatable=0;points=[[0,0.5],[1,0.5]];portConstraint=eastwest;html=1;" parent="1" vertex="1">
          <mxGeometry x="2600" y="70" width="80" height="26" as="geometry" />
        </mxCell>
        <mxCell id="cMctfjUYHGArBV0WSHqv-113" value="" style="shape=umlLifeline;perimeter=lifelinePerimeter;whiteSpace=wrap;html=1;container=1;dropTarget=0;collapsible=0;recursiveResize=0;outlineConnect=0;portConstraint=eastwest;newEdgeStyle={&quot;edgeStyle&quot;:&quot;elbowEdgeStyle&quot;,&quot;elbow&quot;:&quot;vertical&quot;,&quot;curved&quot;:0,&quot;rounded&quot;:0};participant=umlActor;" parent="1" vertex="1">
          <mxGeometry x="2420" y="142.5" width="20" height="627.5" as="geometry" />
        </mxCell>
        <mxCell id="cMctfjUYHGArBV0WSHqv-114" value="Монолит фронт" style="shape=umlLifeline;perimeter=lifelinePerimeter;whiteSpace=wrap;html=1;container=1;dropTarget=0;collapsible=0;recursiveResize=0;outlineConnect=0;portConstraint=eastwest;newEdgeStyle={&quot;edgeStyle&quot;:&quot;elbowEdgeStyle&quot;,&quot;elbow&quot;:&quot;vertical&quot;,&quot;curved&quot;:0,&quot;rounded&quot;:0};" parent="1" vertex="1">
          <mxGeometry x="2580" y="142.5" width="100" height="647.5" as="geometry" />
        </mxCell>
        <mxCell id="cMctfjUYHGArBV0WSHqv-115" value="" style="html=1;points=[];perimeter=orthogonalPerimeter;outlineConnect=0;targetShapes=umlLifeline;portConstraint=eastwest;newEdgeStyle={&quot;edgeStyle&quot;:&quot;elbowEdgeStyle&quot;,&quot;elbow&quot;:&quot;vertical&quot;,&quot;curved&quot;:0,&quot;rounded&quot;:0};" parent="cMctfjUYHGArBV0WSHqv-114" vertex="1">
          <mxGeometry x="45" y="57.5" width="10" height="132.5" as="geometry" />
        </mxCell>
        <mxCell id="cMctfjUYHGArBV0WSHqv-117" value="Вкладка с названиями ВС и кнопками&lt;br&gt;&quot;Запрос&quot; и &quot;Переход&quot;" style="html=1;verticalAlign=bottom;endArrow=open;dashed=1;endSize=8;edgeStyle=elbowEdgeStyle;elbow=vertical;curved=0;rounded=0;" parent="cMctfjUYHGArBV0WSHqv-114" target="cMctfjUYHGArBV0WSHqv-113" edge="1">
          <mxGeometry relative="1" as="geometry">
            <mxPoint x="-25" y="157.5" as="targetPoint" />
            <mxPoint x="45" y="157.5" as="sourcePoint" />
          </mxGeometry>
        </mxCell>
        <mxCell id="cMctfjUYHGArBV0WSHqv-125" value="" style="html=1;points=[];perimeter=orthogonalPerimeter;outlineConnect=0;targetShapes=umlLifeline;portConstraint=eastwest;newEdgeStyle={&quot;edgeStyle&quot;:&quot;elbowEdgeStyle&quot;,&quot;elbow&quot;:&quot;vertical&quot;,&quot;curved&quot;:0,&quot;rounded&quot;:0};" parent="cMctfjUYHGArBV0WSHqv-114" vertex="1">
          <mxGeometry x="45" y="327.5" width="10" height="80" as="geometry" />
        </mxCell>
        <mxCell id="cMctfjUYHGArBV0WSHqv-134" value="" style="html=1;points=[];perimeter=orthogonalPerimeter;outlineConnect=0;targetShapes=umlLifeline;portConstraint=eastwest;newEdgeStyle={&quot;edgeStyle&quot;:&quot;elbowEdgeStyle&quot;,&quot;elbow&quot;:&quot;vertical&quot;,&quot;curved&quot;:0,&quot;rounded&quot;:0};" parent="cMctfjUYHGArBV0WSHqv-114" vertex="1">
          <mxGeometry x="45" y="430.5" width="10" height="80" as="geometry" />
        </mxCell>
        <mxCell id="cMctfjUYHGArBV0WSHqv-138" value="" style="html=1;points=[];perimeter=orthogonalPerimeter;outlineConnect=0;targetShapes=umlLifeline;portConstraint=eastwest;newEdgeStyle={&quot;edgeStyle&quot;:&quot;elbowEdgeStyle&quot;,&quot;elbow&quot;:&quot;vertical&quot;,&quot;curved&quot;:0,&quot;rounded&quot;:0};" parent="cMctfjUYHGArBV0WSHqv-114" vertex="1">
          <mxGeometry x="45" y="547.5" width="10" height="80" as="geometry" />
        </mxCell>
        <mxCell id="cMctfjUYHGArBV0WSHqv-116" value="Переход на вкладку &lt;br&gt;&quot;межведомственные запросы&quot;" style="html=1;verticalAlign=bottom;endArrow=block;edgeStyle=elbowEdgeStyle;elbow=vertical;curved=0;rounded=0;exitX=0.525;exitY=0.132;exitDx=0;exitDy=0;exitPerimeter=0;" parent="1" edge="1">
          <mxGeometry relative="1" as="geometry">
            <mxPoint x="2430.5" y="220.20000000000005" as="sourcePoint" />
            <mxPoint x="2625" y="220" as="targetPoint" />
          </mxGeometry>
        </mxCell>
        <mxCell id="cMctfjUYHGArBV0WSHqv-118" style="edgeStyle=elbowEdgeStyle;rounded=0;orthogonalLoop=1;jettySize=auto;html=1;elbow=vertical;curved=0;" parent="1" source="cMctfjUYHGArBV0WSHqv-115" target="cMctfjUYHGArBV0WSHqv-99" edge="1">
          <mxGeometry relative="1" as="geometry">
            <Array as="points">
              <mxPoint x="2750" y="230" />
            </Array>
          </mxGeometry>
        </mxCell>
        <mxCell id="cMctfjUYHGArBV0WSHqv-119" value="запрос информации&lt;br&gt;для генерация вкладки" style="edgeLabel;html=1;align=center;verticalAlign=middle;resizable=0;points=[];" parent="cMctfjUYHGArBV0WSHqv-118" vertex="1" connectable="0">
          <mxGeometry x="-0.0667" relative="1" as="geometry">
            <mxPoint y="-17" as="offset" />
          </mxGeometry>
        </mxCell>
        <mxCell id="cMctfjUYHGArBV0WSHqv-120" value="Информация по элементам&lt;br&gt;интерфейса на вкладке" style="html=1;verticalAlign=bottom;endArrow=open;dashed=1;endSize=8;edgeStyle=elbowEdgeStyle;elbow=vertical;curved=0;rounded=0;" parent="1" edge="1">
          <mxGeometry relative="1" as="geometry">
            <mxPoint x="2845" y="290" as="sourcePoint" />
            <mxPoint x="2635" y="290" as="targetPoint" />
          </mxGeometry>
        </mxCell>
        <mxCell id="cMctfjUYHGArBV0WSHqv-124" value="alt" style="shape=umlFrame;whiteSpace=wrap;html=1;pointerEvents=0;" parent="1" vertex="1">
          <mxGeometry x="2763" y="294" width="557" height="136" as="geometry" />
        </mxCell>
        <mxCell id="cMctfjUYHGArBV0WSHqv-126" value="Нажатие на кнопку &quot;Запрос&quot; одного&lt;br&gt;из ВС" style="html=1;verticalAlign=bottom;endArrow=block;edgeStyle=elbowEdgeStyle;elbow=vertical;curved=0;rounded=0;" parent="1" source="cMctfjUYHGArBV0WSHqv-113" target="cMctfjUYHGArBV0WSHqv-125" edge="1">
          <mxGeometry relative="1" as="geometry">
            <mxPoint x="2555" y="470" as="sourcePoint" />
            <Array as="points">
              <mxPoint x="2540" y="470" />
            </Array>
          </mxGeometry>
        </mxCell>
        <mxCell id="cMctfjUYHGArBV0WSHqv-127" value="Запрос отправлен, можешь следить&lt;br&gt;за ним в реестре КПиПТ" style="html=1;verticalAlign=bottom;endArrow=open;dashed=1;endSize=8;edgeStyle=elbowEdgeStyle;elbow=vertical;curved=0;rounded=0;" parent="1" source="cMctfjUYHGArBV0WSHqv-125" target="cMctfjUYHGArBV0WSHqv-113" edge="1">
          <mxGeometry relative="1" as="geometry">
            <mxPoint x="2555" y="545" as="targetPoint" />
            <Array as="points">
              <mxPoint x="2430" y="550.5" />
            </Array>
          </mxGeometry>
        </mxCell>
        <mxCell id="cMctfjUYHGArBV0WSHqv-129" value="Отправка запроса на ВС ...&lt;br&gt;временный дизейбл кнопки" style="html=1;verticalAlign=bottom;endArrow=block;edgeStyle=elbowEdgeStyle;elbow=vertical;curved=0;rounded=0;" parent="1" source="cMctfjUYHGArBV0WSHqv-125" target="cMctfjUYHGArBV0WSHqv-128" edge="1">
          <mxGeometry relative="1" as="geometry">
            <mxPoint x="2775" y="480" as="sourcePoint" />
            <Array as="points">
              <mxPoint x="2750" y="480" />
            </Array>
          </mxGeometry>
        </mxCell>
        <mxCell id="cMctfjUYHGArBV0WSHqv-130" value="смена статуса запроса&lt;br&gt;энейбл кнопки &quot;Переход&quot; к&amp;nbsp;&lt;br&gt;этому запросу в реестрах запросов" style="html=1;verticalAlign=bottom;endArrow=open;dashed=1;endSize=8;edgeStyle=elbowEdgeStyle;elbow=vertical;curved=0;rounded=0;" parent="1" source="cMctfjUYHGArBV0WSHqv-128" target="cMctfjUYHGArBV0WSHqv-125" edge="1">
          <mxGeometry relative="1" as="geometry">
            <mxPoint x="2775" y="555" as="targetPoint" />
            <Array as="points">
              <mxPoint x="2730" y="530" />
            </Array>
          </mxGeometry>
        </mxCell>
        <mxCell id="cMctfjUYHGArBV0WSHqv-133" value="200" style="html=1;verticalAlign=bottom;endArrow=open;dashed=1;endSize=8;edgeStyle=elbowEdgeStyle;elbow=vertical;curved=0;rounded=0;" parent="1" source="cMctfjUYHGArBV0WSHqv-131" target="cMctfjUYHGArBV0WSHqv-128" edge="1">
          <mxGeometry x="0.3409" relative="1" as="geometry">
            <mxPoint x="3225" y="575" as="targetPoint" />
            <Array as="points">
              <mxPoint x="3075" y="520" />
            </Array>
            <mxPoint as="offset" />
          </mxGeometry>
        </mxCell>
        <mxCell id="cMctfjUYHGArBV0WSHqv-132" value="отправка запроса" style="html=1;verticalAlign=bottom;endArrow=block;edgeStyle=elbowEdgeStyle;elbow=vertical;curved=0;rounded=0;" parent="1" source="cMctfjUYHGArBV0WSHqv-128" target="cMctfjUYHGArBV0WSHqv-131" edge="1">
          <mxGeometry x="-0.2045" relative="1" as="geometry">
            <mxPoint x="3225" y="500" as="sourcePoint" />
            <Array as="points">
              <mxPoint x="3070" y="490" />
            </Array>
            <mxPoint as="offset" />
          </mxGeometry>
        </mxCell>
        <mxCell id="cMctfjUYHGArBV0WSHqv-135" value="Все запросы были отправлены" style="html=1;verticalAlign=bottom;endArrow=block;edgeStyle=elbowEdgeStyle;elbow=vertical;curved=0;rounded=0;" parent="1" target="cMctfjUYHGArBV0WSHqv-134" edge="1">
          <mxGeometry relative="1" as="geometry">
            <mxPoint x="2849.4999999999995" y="580" as="sourcePoint" />
            <mxPoint x="2629.9999999999995" y="582.5" as="targetPoint" />
            <Array as="points" />
          </mxGeometry>
        </mxCell>
        <mxCell id="cMctfjUYHGArBV0WSHqv-136" value="отрисовка кнопки &quot;Принять решение&quot;" style="html=1;verticalAlign=bottom;endArrow=open;dashed=1;endSize=8;edgeStyle=elbowEdgeStyle;elbow=vertical;curved=0;rounded=0;" parent="1" source="cMctfjUYHGArBV0WSHqv-134" target="cMctfjUYHGArBV0WSHqv-113" edge="1">
          <mxGeometry relative="1" as="geometry">
            <mxPoint x="2705" y="648" as="targetPoint" />
            <Array as="points">
              <mxPoint x="2540" y="640" />
            </Array>
          </mxGeometry>
        </mxCell>
        <mxCell id="cMctfjUYHGArBV0WSHqv-137" value="Loop" style="shape=umlFrame;whiteSpace=wrap;html=1;pointerEvents=0;" parent="1" vertex="1">
          <mxGeometry x="2360" y="440" width="960" height="120" as="geometry" />
        </mxCell>
        <mxCell id="cMctfjUYHGArBV0WSHqv-139" value="Нажатие на кнопку &quot;Принять решение&quot;" style="html=1;verticalAlign=bottom;endArrow=block;edgeStyle=elbowEdgeStyle;elbow=vertical;curved=0;rounded=0;" parent="1" source="cMctfjUYHGArBV0WSHqv-113" target="cMctfjUYHGArBV0WSHqv-138" edge="1">
          <mxGeometry relative="1" as="geometry">
            <mxPoint x="2555" y="690" as="sourcePoint" />
            <Array as="points">
              <mxPoint x="2540" y="690" />
            </Array>
          </mxGeometry>
        </mxCell>
        <mxCell id="cMctfjUYHGArBV0WSHqv-140" value="Смена статуса, новая вкладка и тд." style="html=1;verticalAlign=bottom;endArrow=open;dashed=1;endSize=8;edgeStyle=elbowEdgeStyle;elbow=vertical;curved=0;rounded=0;" parent="1" source="cMctfjUYHGArBV0WSHqv-138" target="cMctfjUYHGArBV0WSHqv-113" edge="1">
          <mxGeometry relative="1" as="geometry">
            <mxPoint x="2555" y="765" as="targetPoint" />
            <Array as="points">
              <mxPoint x="2520" y="760" />
            </Array>
          </mxGeometry>
        </mxCell>
        <mxCell id="cMctfjUYHGArBV0WSHqv-143" value="События по окончанию этапа" style="html=1;verticalAlign=bottom;endArrow=open;dashed=1;endSize=8;edgeStyle=elbowEdgeStyle;elbow=vertical;curved=0;rounded=0;" parent="1" source="cMctfjUYHGArBV0WSHqv-141" target="cMctfjUYHGArBV0WSHqv-138" edge="1">
          <mxGeometry relative="1" as="geometry">
            <mxPoint x="2775" y="765" as="targetPoint" />
            <Array as="points">
              <mxPoint x="2740" y="740" />
            </Array>
          </mxGeometry>
        </mxCell>
        <mxCell id="cMctfjUYHGArBV0WSHqv-142" value="UC 8" style="html=1;verticalAlign=bottom;endArrow=block;edgeStyle=elbowEdgeStyle;elbow=vertical;curved=0;rounded=0;" parent="1" source="cMctfjUYHGArBV0WSHqv-138" target="cMctfjUYHGArBV0WSHqv-141" edge="1">
          <mxGeometry relative="1" as="geometry">
            <mxPoint x="2775" y="690" as="sourcePoint" />
            <Array as="points">
              <mxPoint x="2740" y="700" />
            </Array>
          </mxGeometry>
        </mxCell>
        <mxCell id="GZ1t6rhlpKGQpij9ym-B-1" value="Регистрация заявления" style="text;align=center;fontStyle=1;verticalAlign=middle;spacingLeft=3;spacingRight=3;strokeColor=none;rotatable=0;points=[[0,0.5],[1,0.5]];portConstraint=eastwest;html=1;" parent="1" vertex="1">
          <mxGeometry x="3700" y="60" width="80" height="26" as="geometry" />
        </mxCell>
        <mxCell id="GZ1t6rhlpKGQpij9ym-B-2" value="Монолит" style="shape=umlLifeline;perimeter=lifelinePerimeter;whiteSpace=wrap;html=1;container=1;dropTarget=0;collapsible=0;recursiveResize=0;outlineConnect=0;portConstraint=eastwest;newEdgeStyle={&quot;edgeStyle&quot;:&quot;elbowEdgeStyle&quot;,&quot;elbow&quot;:&quot;vertical&quot;,&quot;curved&quot;:0,&quot;rounded&quot;:0};" parent="1" vertex="1">
          <mxGeometry x="4010" y="142.5" width="100" height="650" as="geometry" />
        </mxCell>
        <mxCell id="GZ1t6rhlpKGQpij9ym-B-26" value="" style="html=1;points=[];perimeter=orthogonalPerimeter;outlineConnect=0;targetShapes=umlLifeline;portConstraint=eastwest;newEdgeStyle={&quot;edgeStyle&quot;:&quot;elbowEdgeStyle&quot;,&quot;elbow&quot;:&quot;vertical&quot;,&quot;curved&quot;:0,&quot;rounded&quot;:0};" parent="GZ1t6rhlpKGQpij9ym-B-2" vertex="1">
          <mxGeometry x="45" y="75.5" width="10" height="54.5" as="geometry" />
        </mxCell>
        <mxCell id="GZ1t6rhlpKGQpij9ym-B-34" value="" style="html=1;points=[];perimeter=orthogonalPerimeter;outlineConnect=0;targetShapes=umlLifeline;portConstraint=eastwest;newEdgeStyle={&quot;edgeStyle&quot;:&quot;elbowEdgeStyle&quot;,&quot;elbow&quot;:&quot;vertical&quot;,&quot;curved&quot;:0,&quot;rounded&quot;:0};" parent="GZ1t6rhlpKGQpij9ym-B-2" vertex="1">
          <mxGeometry x="45" y="260" width="10" height="50" as="geometry" />
        </mxCell>
        <mxCell id="GZ1t6rhlpKGQpij9ym-B-41" value="" style="html=1;points=[];perimeter=orthogonalPerimeter;outlineConnect=0;targetShapes=umlLifeline;portConstraint=eastwest;newEdgeStyle={&quot;edgeStyle&quot;:&quot;elbowEdgeStyle&quot;,&quot;elbow&quot;:&quot;vertical&quot;,&quot;curved&quot;:0,&quot;rounded&quot;:0};" parent="GZ1t6rhlpKGQpij9ym-B-2" vertex="1">
          <mxGeometry x="45" y="392.5" width="10" height="50" as="geometry" />
        </mxCell>
        <mxCell id="GZ1t6rhlpKGQpij9ym-B-42" value="UC 8" style="html=1;verticalAlign=bottom;endArrow=block;edgeStyle=elbowEdgeStyle;elbow=vertical;curved=0;rounded=0;" parent="GZ1t6rhlpKGQpij9ym-B-2" target="GZ1t6rhlpKGQpij9ym-B-41" edge="1">
          <mxGeometry relative="1" as="geometry">
            <mxPoint x="-245" y="400" as="sourcePoint" />
            <Array as="points">
              <mxPoint x="-100" y="400" />
            </Array>
          </mxGeometry>
        </mxCell>
        <mxCell id="GZ1t6rhlpKGQpij9ym-B-43" value="События по окончанию этапа" style="html=1;verticalAlign=bottom;endArrow=open;dashed=1;endSize=8;edgeStyle=elbowEdgeStyle;elbow=vertical;curved=0;rounded=0;" parent="GZ1t6rhlpKGQpij9ym-B-2" source="GZ1t6rhlpKGQpij9ym-B-41" edge="1">
          <mxGeometry relative="1" as="geometry">
            <mxPoint x="-245" y="440" as="targetPoint" />
            <Array as="points">
              <mxPoint x="-100" y="440" />
            </Array>
          </mxGeometry>
        </mxCell>
        <mxCell id="GZ1t6rhlpKGQpij9ym-B-8" value="Сервис услуг" style="shape=umlLifeline;perimeter=lifelinePerimeter;whiteSpace=wrap;html=1;container=1;dropTarget=0;collapsible=0;recursiveResize=0;outlineConnect=0;portConstraint=eastwest;newEdgeStyle={&quot;edgeStyle&quot;:&quot;elbowEdgeStyle&quot;,&quot;elbow&quot;:&quot;vertical&quot;,&quot;curved&quot;:0,&quot;rounded&quot;:0};" parent="1" vertex="1">
          <mxGeometry x="4250" y="152.5" width="100" height="490" as="geometry" />
        </mxCell>
        <mxCell id="GZ1t6rhlpKGQpij9ym-B-9" value="" style="html=1;points=[];perimeter=orthogonalPerimeter;outlineConnect=0;targetShapes=umlLifeline;portConstraint=eastwest;newEdgeStyle={&quot;edgeStyle&quot;:&quot;elbowEdgeStyle&quot;,&quot;elbow&quot;:&quot;vertical&quot;,&quot;curved&quot;:0,&quot;rounded&quot;:0};" parent="GZ1t6rhlpKGQpij9ym-B-8" vertex="1">
          <mxGeometry x="45" y="60" width="10" height="80" as="geometry" />
        </mxCell>
        <mxCell id="GZ1t6rhlpKGQpij9ym-B-12" value="получить информацию по этапу&amp;nbsp;&lt;br style=&quot;border-color: var(--border-color);&quot;&gt;&quot;Регистрация заявления&quot;" style="html=1;verticalAlign=bottom;endArrow=block;edgeStyle=elbowEdgeStyle;elbow=vertical;curved=0;rounded=0;" parent="1" source="GZ1t6rhlpKGQpij9ym-B-26" target="GZ1t6rhlpKGQpij9ym-B-9" edge="1">
          <mxGeometry relative="1" as="geometry">
            <mxPoint x="4225" y="212.5" as="sourcePoint" />
            <Array as="points">
              <mxPoint x="4210" y="230" />
            </Array>
          </mxGeometry>
        </mxCell>
        <mxCell id="GZ1t6rhlpKGQpij9ym-B-13" value="json со всей информацией" style="html=1;verticalAlign=bottom;endArrow=open;dashed=1;endSize=8;edgeStyle=elbowEdgeStyle;elbow=vertical;curved=0;rounded=0;" parent="1" source="GZ1t6rhlpKGQpij9ym-B-9" edge="1">
          <mxGeometry relative="1" as="geometry">
            <mxPoint x="4066" y="260" as="targetPoint" />
            <Array as="points">
              <mxPoint x="4200" y="260" />
            </Array>
          </mxGeometry>
        </mxCell>
        <mxCell id="GZ1t6rhlpKGQpij9ym-B-16" value="" style="shape=umlLifeline;perimeter=lifelinePerimeter;whiteSpace=wrap;html=1;container=1;dropTarget=0;collapsible=0;recursiveResize=0;outlineConnect=0;portConstraint=eastwest;newEdgeStyle={&quot;edgeStyle&quot;:&quot;elbowEdgeStyle&quot;,&quot;elbow&quot;:&quot;vertical&quot;,&quot;curved&quot;:0,&quot;rounded&quot;:0};participant=umlActor;" parent="1" vertex="1">
          <mxGeometry x="3470" y="141.25" width="20" height="668.75" as="geometry" />
        </mxCell>
        <mxCell id="GZ1t6rhlpKGQpij9ym-B-32" value="" style="html=1;points=[];perimeter=orthogonalPerimeter;outlineConnect=0;targetShapes=umlLifeline;portConstraint=eastwest;newEdgeStyle={&quot;edgeStyle&quot;:&quot;elbowEdgeStyle&quot;,&quot;elbow&quot;:&quot;vertical&quot;,&quot;curved&quot;:0,&quot;rounded&quot;:0};" parent="GZ1t6rhlpKGQpij9ym-B-16" vertex="1">
          <mxGeometry x="5" y="189.75" width="10" height="40" as="geometry" />
        </mxCell>
        <mxCell id="GZ1t6rhlpKGQpij9ym-B-33" value="Анализ пришедшей информации" style="html=1;align=left;spacingLeft=2;endArrow=block;rounded=0;edgeStyle=orthogonalEdgeStyle;curved=0;rounded=0;" parent="GZ1t6rhlpKGQpij9ym-B-16" target="GZ1t6rhlpKGQpij9ym-B-32" edge="1">
          <mxGeometry relative="1" as="geometry">
            <mxPoint x="10" y="169.75" as="sourcePoint" />
            <Array as="points">
              <mxPoint x="40" y="199.75" />
            </Array>
          </mxGeometry>
        </mxCell>
        <mxCell id="GZ1t6rhlpKGQpij9ym-B-17" value="Монолит фронт" style="shape=umlLifeline;perimeter=lifelinePerimeter;whiteSpace=wrap;html=1;container=1;dropTarget=0;collapsible=0;recursiveResize=0;outlineConnect=0;portConstraint=eastwest;newEdgeStyle={&quot;edgeStyle&quot;:&quot;elbowEdgeStyle&quot;,&quot;elbow&quot;:&quot;vertical&quot;,&quot;curved&quot;:0,&quot;rounded&quot;:0};" parent="1" vertex="1">
          <mxGeometry x="3710" y="137.5" width="100" height="647.5" as="geometry" />
        </mxCell>
        <mxCell id="GZ1t6rhlpKGQpij9ym-B-23" value="" style="html=1;points=[];perimeter=orthogonalPerimeter;outlineConnect=0;targetShapes=umlLifeline;portConstraint=eastwest;newEdgeStyle={&quot;edgeStyle&quot;:&quot;elbowEdgeStyle&quot;,&quot;elbow&quot;:&quot;vertical&quot;,&quot;curved&quot;:0,&quot;rounded&quot;:0};" parent="GZ1t6rhlpKGQpij9ym-B-17" vertex="1">
          <mxGeometry x="45" y="72.5" width="10" height="80" as="geometry" />
        </mxCell>
        <mxCell id="GZ1t6rhlpKGQpij9ym-B-29" value="" style="html=1;points=[];perimeter=orthogonalPerimeter;outlineConnect=0;targetShapes=umlLifeline;portConstraint=eastwest;newEdgeStyle={&quot;edgeStyle&quot;:&quot;elbowEdgeStyle&quot;,&quot;elbow&quot;:&quot;vertical&quot;,&quot;curved&quot;:0,&quot;rounded&quot;:0};" parent="GZ1t6rhlpKGQpij9ym-B-17" vertex="1">
          <mxGeometry x="45" y="252.5" width="10" height="80" as="geometry" />
        </mxCell>
        <mxCell id="GZ1t6rhlpKGQpij9ym-B-38" value="" style="html=1;points=[];perimeter=orthogonalPerimeter;outlineConnect=0;targetShapes=umlLifeline;portConstraint=eastwest;newEdgeStyle={&quot;edgeStyle&quot;:&quot;elbowEdgeStyle&quot;,&quot;elbow&quot;:&quot;vertical&quot;,&quot;curved&quot;:0,&quot;rounded&quot;:0};" parent="GZ1t6rhlpKGQpij9ym-B-17" vertex="1">
          <mxGeometry x="45" y="382.5" width="10" height="80" as="geometry" />
        </mxCell>
        <mxCell id="GZ1t6rhlpKGQpij9ym-B-39" value="Нажал кнопку &quot;отказать&quot;" style="html=1;verticalAlign=bottom;endArrow=block;edgeStyle=elbowEdgeStyle;elbow=vertical;curved=0;rounded=0;" parent="GZ1t6rhlpKGQpij9ym-B-17" target="GZ1t6rhlpKGQpij9ym-B-38" edge="1">
          <mxGeometry relative="1" as="geometry">
            <mxPoint x="-230" y="382.5" as="sourcePoint" />
            <Array as="points">
              <mxPoint x="40" y="382.5" />
            </Array>
          </mxGeometry>
        </mxCell>
        <mxCell id="GZ1t6rhlpKGQpij9ym-B-40" value="Завершение обработки заявления" style="html=1;verticalAlign=bottom;endArrow=open;dashed=1;endSize=8;edgeStyle=elbowEdgeStyle;elbow=vertical;curved=0;rounded=0;" parent="GZ1t6rhlpKGQpij9ym-B-17" source="GZ1t6rhlpKGQpij9ym-B-38" edge="1">
          <mxGeometry relative="1" as="geometry">
            <mxPoint x="-230" y="462.5" as="targetPoint" />
            <Array as="points">
              <mxPoint x="-87" y="462.5" />
            </Array>
          </mxGeometry>
        </mxCell>
        <mxCell id="GZ1t6rhlpKGQpij9ym-B-24" value="Пользователь переходит на вкладку Прием заявлений" style="html=1;verticalAlign=bottom;endArrow=block;edgeStyle=elbowEdgeStyle;elbow=vertical;curved=0;rounded=0;" parent="1" source="GZ1t6rhlpKGQpij9ym-B-16" target="GZ1t6rhlpKGQpij9ym-B-23" edge="1">
          <mxGeometry relative="1" as="geometry">
            <mxPoint x="3685" y="210" as="sourcePoint" />
            <Array as="points">
              <mxPoint x="3630" y="210" />
            </Array>
          </mxGeometry>
        </mxCell>
        <mxCell id="GZ1t6rhlpKGQpij9ym-B-25" value="Вкладка с информацией о заявлении и заявителе&lt;br&gt;кнопки с галочками &quot;соответствие&quot; и тд." style="html=1;verticalAlign=bottom;endArrow=open;dashed=1;endSize=8;edgeStyle=elbowEdgeStyle;elbow=vertical;curved=0;rounded=0;" parent="1" source="GZ1t6rhlpKGQpij9ym-B-23" target="GZ1t6rhlpKGQpij9ym-B-16" edge="1">
          <mxGeometry relative="1" as="geometry">
            <mxPoint x="3685" y="285" as="targetPoint" />
            <Array as="points">
              <mxPoint x="3623" y="290" />
            </Array>
          </mxGeometry>
        </mxCell>
        <mxCell id="GZ1t6rhlpKGQpij9ym-B-27" value="запрос информации&lt;br style=&quot;border-color: var(--border-color);&quot;&gt;для генерация вкладки" style="html=1;verticalAlign=bottom;endArrow=block;edgeStyle=elbowEdgeStyle;elbow=vertical;curved=0;rounded=0;" parent="1" source="GZ1t6rhlpKGQpij9ym-B-23" target="GZ1t6rhlpKGQpij9ym-B-26" edge="1">
          <mxGeometry relative="1" as="geometry">
            <mxPoint x="3985" y="218" as="sourcePoint" />
            <Array as="points">
              <mxPoint x="3910" y="220" />
            </Array>
          </mxGeometry>
        </mxCell>
        <mxCell id="GZ1t6rhlpKGQpij9ym-B-28" value="Информация по элементам&lt;br style=&quot;border-color: var(--border-color);&quot;&gt;интерфейса на вкладке" style="html=1;verticalAlign=bottom;endArrow=open;dashed=1;endSize=8;edgeStyle=elbowEdgeStyle;elbow=vertical;curved=0;rounded=0;" parent="1" source="GZ1t6rhlpKGQpij9ym-B-26" target="GZ1t6rhlpKGQpij9ym-B-23" edge="1">
          <mxGeometry relative="1" as="geometry">
            <mxPoint x="3985" y="293" as="targetPoint" />
            <Array as="points">
              <mxPoint x="3910" y="270" />
            </Array>
          </mxGeometry>
        </mxCell>
        <mxCell id="GZ1t6rhlpKGQpij9ym-B-30" value="Нажал кнопку &quot;зарегистрировать&quot;" style="html=1;verticalAlign=bottom;endArrow=block;edgeStyle=elbowEdgeStyle;elbow=vertical;curved=0;rounded=0;" parent="1" source="GZ1t6rhlpKGQpij9ym-B-16" target="GZ1t6rhlpKGQpij9ym-B-29" edge="1">
          <mxGeometry relative="1" as="geometry">
            <mxPoint x="3685" y="360" as="sourcePoint" />
            <Array as="points">
              <mxPoint x="3750" y="390" />
            </Array>
          </mxGeometry>
        </mxCell>
        <mxCell id="GZ1t6rhlpKGQpij9ym-B-31" value="Следующий этап" style="html=1;verticalAlign=bottom;endArrow=open;dashed=1;endSize=8;edgeStyle=elbowEdgeStyle;elbow=vertical;curved=0;rounded=0;" parent="1" source="GZ1t6rhlpKGQpij9ym-B-29" target="GZ1t6rhlpKGQpij9ym-B-16" edge="1">
          <mxGeometry relative="1" as="geometry">
            <mxPoint x="3685" y="435" as="targetPoint" />
            <Array as="points">
              <mxPoint x="3623" y="470" />
            </Array>
          </mxGeometry>
        </mxCell>
        <mxCell id="GZ1t6rhlpKGQpij9ym-B-35" value="UC 8" style="html=1;verticalAlign=bottom;endArrow=block;edgeStyle=elbowEdgeStyle;elbow=vertical;curved=0;rounded=0;" parent="1" source="GZ1t6rhlpKGQpij9ym-B-29" target="GZ1t6rhlpKGQpij9ym-B-34" edge="1">
          <mxGeometry relative="1" as="geometry">
            <mxPoint x="3985" y="390" as="sourcePoint" />
            <Array as="points">
              <mxPoint x="3910" y="410" />
            </Array>
          </mxGeometry>
        </mxCell>
        <mxCell id="GZ1t6rhlpKGQpij9ym-B-36" value="События по окончанию этапа" style="html=1;verticalAlign=bottom;endArrow=open;dashed=1;endSize=8;edgeStyle=elbowEdgeStyle;elbow=vertical;curved=0;rounded=0;" parent="1" source="GZ1t6rhlpKGQpij9ym-B-34" target="GZ1t6rhlpKGQpij9ym-B-29" edge="1">
          <mxGeometry relative="1" as="geometry">
            <mxPoint x="3985" y="465" as="targetPoint" />
            <Array as="points">
              <mxPoint x="3910" y="450" />
            </Array>
          </mxGeometry>
        </mxCell>
        <mxCell id="GZ1t6rhlpKGQpij9ym-B-37" value="alt" style="shape=umlFrame;whiteSpace=wrap;html=1;pointerEvents=0;" parent="1" vertex="1">
          <mxGeometry x="3400" y="490" width="720" height="130" as="geometry" />
        </mxCell>
        <mxCell id="GZ1t6rhlpKGQpij9ym-B-44" value="" style="html=1;points=[];perimeter=orthogonalPerimeter;outlineConnect=0;targetShapes=umlLifeline;portConstraint=eastwest;newEdgeStyle={&quot;edgeStyle&quot;:&quot;elbowEdgeStyle&quot;,&quot;elbow&quot;:&quot;vertical&quot;,&quot;curved&quot;:0,&quot;rounded&quot;:0};" parent="1" vertex="1">
          <mxGeometry x="4055" y="675" width="10" height="50" as="geometry" />
        </mxCell>
        <mxCell id="GZ1t6rhlpKGQpij9ym-B-45" value="UC 8" style="html=1;verticalAlign=bottom;endArrow=block;edgeStyle=elbowEdgeStyle;elbow=vertical;curved=0;rounded=0;" parent="1" target="GZ1t6rhlpKGQpij9ym-B-44" edge="1">
          <mxGeometry relative="1" as="geometry">
            <mxPoint x="3765" y="682.5" as="sourcePoint" />
            <Array as="points">
              <mxPoint x="3910" y="682.5" />
            </Array>
          </mxGeometry>
        </mxCell>
        <mxCell id="GZ1t6rhlpKGQpij9ym-B-46" value="События по окончанию этапа" style="html=1;verticalAlign=bottom;endArrow=open;dashed=1;endSize=8;edgeStyle=elbowEdgeStyle;elbow=vertical;curved=0;rounded=0;" parent="1" source="GZ1t6rhlpKGQpij9ym-B-44" edge="1">
          <mxGeometry relative="1" as="geometry">
            <mxPoint x="3765" y="722.5" as="targetPoint" />
            <Array as="points">
              <mxPoint x="3910" y="722.5" />
            </Array>
          </mxGeometry>
        </mxCell>
        <mxCell id="GZ1t6rhlpKGQpij9ym-B-47" value="" style="html=1;points=[];perimeter=orthogonalPerimeter;outlineConnect=0;targetShapes=umlLifeline;portConstraint=eastwest;newEdgeStyle={&quot;edgeStyle&quot;:&quot;elbowEdgeStyle&quot;,&quot;elbow&quot;:&quot;vertical&quot;,&quot;curved&quot;:0,&quot;rounded&quot;:0};" parent="1" vertex="1">
          <mxGeometry x="3755" y="660" width="10" height="80" as="geometry" />
        </mxCell>
        <mxCell id="GZ1t6rhlpKGQpij9ym-B-48" value="Нажал кнопку &quot;Перенаправить&quot;" style="html=1;verticalAlign=bottom;endArrow=block;edgeStyle=elbowEdgeStyle;elbow=vertical;curved=0;rounded=0;" parent="1" target="GZ1t6rhlpKGQpij9ym-B-47" edge="1">
          <mxGeometry relative="1" as="geometry">
            <mxPoint x="3480" y="660" as="sourcePoint" />
            <Array as="points">
              <mxPoint x="3750" y="660" />
            </Array>
          </mxGeometry>
        </mxCell>
        <mxCell id="GZ1t6rhlpKGQpij9ym-B-49" value="Заявление возвращается в начальный статус&lt;br&gt;АДБ меняется на тот куда &quot;перенаправили&quot;" style="html=1;verticalAlign=bottom;endArrow=open;dashed=1;endSize=8;edgeStyle=elbowEdgeStyle;elbow=vertical;curved=0;rounded=0;" parent="1" source="GZ1t6rhlpKGQpij9ym-B-47" edge="1">
          <mxGeometry relative="1" as="geometry">
            <mxPoint x="3480" y="740" as="targetPoint" />
            <Array as="points">
              <mxPoint x="3623" y="740" />
            </Array>
          </mxGeometry>
        </mxCell>
        <mxCell id="GZ1t6rhlpKGQpij9ym-B-50" value="alt" style="shape=umlFrame;whiteSpace=wrap;html=1;pointerEvents=0;" parent="1" vertex="1">
          <mxGeometry x="3400" y="630" width="720" height="170" as="geometry" />
        </mxCell>
        <mxCell id="l9OQHqU8yiIOQpjbqeAc-1" value="Предоставление результата" style="text;align=center;fontStyle=1;verticalAlign=middle;spacingLeft=3;spacingRight=3;strokeColor=none;rotatable=0;points=[[0,0.5],[1,0.5]];portConstraint=eastwest;html=1;" vertex="1" parent="1">
          <mxGeometry x="4700" y="70" width="80" height="26" as="geometry" />
        </mxCell>
        <mxCell id="l9OQHqU8yiIOQpjbqeAc-2" value="Монолит" style="shape=umlLifeline;perimeter=lifelinePerimeter;whiteSpace=wrap;html=1;container=1;dropTarget=0;collapsible=0;recursiveResize=0;outlineConnect=0;portConstraint=eastwest;newEdgeStyle={&quot;edgeStyle&quot;:&quot;elbowEdgeStyle&quot;,&quot;elbow&quot;:&quot;vertical&quot;,&quot;curved&quot;:0,&quot;rounded&quot;:0};" vertex="1" parent="1">
          <mxGeometry x="5010" y="152.5" width="100" height="507.5" as="geometry" />
        </mxCell>
        <mxCell id="l9OQHqU8yiIOQpjbqeAc-3" value="" style="html=1;points=[];perimeter=orthogonalPerimeter;outlineConnect=0;targetShapes=umlLifeline;portConstraint=eastwest;newEdgeStyle={&quot;edgeStyle&quot;:&quot;elbowEdgeStyle&quot;,&quot;elbow&quot;:&quot;vertical&quot;,&quot;curved&quot;:0,&quot;rounded&quot;:0};" vertex="1" parent="l9OQHqU8yiIOQpjbqeAc-2">
          <mxGeometry x="45" y="75.5" width="10" height="54.5" as="geometry" />
        </mxCell>
        <mxCell id="l9OQHqU8yiIOQpjbqeAc-4" value="" style="html=1;points=[];perimeter=orthogonalPerimeter;outlineConnect=0;targetShapes=umlLifeline;portConstraint=eastwest;newEdgeStyle={&quot;edgeStyle&quot;:&quot;elbowEdgeStyle&quot;,&quot;elbow&quot;:&quot;vertical&quot;,&quot;curved&quot;:0,&quot;rounded&quot;:0};" vertex="1" parent="l9OQHqU8yiIOQpjbqeAc-2">
          <mxGeometry x="45" y="260" width="10" height="50" as="geometry" />
        </mxCell>
        <mxCell id="l9OQHqU8yiIOQpjbqeAc-5" value="" style="html=1;points=[];perimeter=orthogonalPerimeter;outlineConnect=0;targetShapes=umlLifeline;portConstraint=eastwest;newEdgeStyle={&quot;edgeStyle&quot;:&quot;elbowEdgeStyle&quot;,&quot;elbow&quot;:&quot;vertical&quot;,&quot;curved&quot;:0,&quot;rounded&quot;:0};" vertex="1" parent="l9OQHqU8yiIOQpjbqeAc-2">
          <mxGeometry x="45" y="392.5" width="10" height="50" as="geometry" />
        </mxCell>
        <mxCell id="l9OQHqU8yiIOQpjbqeAc-6" value="UC 8" style="html=1;verticalAlign=bottom;endArrow=block;edgeStyle=elbowEdgeStyle;elbow=vertical;curved=0;rounded=0;" edge="1" parent="l9OQHqU8yiIOQpjbqeAc-2" target="l9OQHqU8yiIOQpjbqeAc-5">
          <mxGeometry relative="1" as="geometry">
            <mxPoint x="-245" y="400" as="sourcePoint" />
            <Array as="points">
              <mxPoint x="-100" y="400" />
            </Array>
          </mxGeometry>
        </mxCell>
        <mxCell id="l9OQHqU8yiIOQpjbqeAc-7" value="События по окончанию этапа" style="html=1;verticalAlign=bottom;endArrow=open;dashed=1;endSize=8;edgeStyle=elbowEdgeStyle;elbow=vertical;curved=0;rounded=0;" edge="1" parent="l9OQHqU8yiIOQpjbqeAc-2" source="l9OQHqU8yiIOQpjbqeAc-5">
          <mxGeometry relative="1" as="geometry">
            <mxPoint x="-245" y="440" as="targetPoint" />
            <Array as="points">
              <mxPoint x="-100" y="440" />
            </Array>
          </mxGeometry>
        </mxCell>
        <mxCell id="l9OQHqU8yiIOQpjbqeAc-8" value="Сервис услуг" style="shape=umlLifeline;perimeter=lifelinePerimeter;whiteSpace=wrap;html=1;container=1;dropTarget=0;collapsible=0;recursiveResize=0;outlineConnect=0;portConstraint=eastwest;newEdgeStyle={&quot;edgeStyle&quot;:&quot;elbowEdgeStyle&quot;,&quot;elbow&quot;:&quot;vertical&quot;,&quot;curved&quot;:0,&quot;rounded&quot;:0};" vertex="1" parent="1">
          <mxGeometry x="5250" y="162.5" width="100" height="497.5" as="geometry" />
        </mxCell>
        <mxCell id="l9OQHqU8yiIOQpjbqeAc-9" value="" style="html=1;points=[];perimeter=orthogonalPerimeter;outlineConnect=0;targetShapes=umlLifeline;portConstraint=eastwest;newEdgeStyle={&quot;edgeStyle&quot;:&quot;elbowEdgeStyle&quot;,&quot;elbow&quot;:&quot;vertical&quot;,&quot;curved&quot;:0,&quot;rounded&quot;:0};" vertex="1" parent="l9OQHqU8yiIOQpjbqeAc-8">
          <mxGeometry x="45" y="60" width="10" height="80" as="geometry" />
        </mxCell>
        <mxCell id="l9OQHqU8yiIOQpjbqeAc-10" value="получить информацию по этапу&amp;nbsp;&lt;br style=&quot;border-color: var(--border-color);&quot;&gt;&quot;Предоставление результата&quot;" style="html=1;verticalAlign=bottom;endArrow=block;edgeStyle=elbowEdgeStyle;elbow=vertical;curved=0;rounded=0;" edge="1" parent="1" source="l9OQHqU8yiIOQpjbqeAc-3" target="l9OQHqU8yiIOQpjbqeAc-9">
          <mxGeometry relative="1" as="geometry">
            <mxPoint x="5225" y="222.5" as="sourcePoint" />
            <Array as="points">
              <mxPoint x="5210" y="240" />
            </Array>
          </mxGeometry>
        </mxCell>
        <mxCell id="l9OQHqU8yiIOQpjbqeAc-11" value="json со всей информацией" style="html=1;verticalAlign=bottom;endArrow=open;dashed=1;endSize=8;edgeStyle=elbowEdgeStyle;elbow=vertical;curved=0;rounded=0;" edge="1" parent="1" source="l9OQHqU8yiIOQpjbqeAc-9">
          <mxGeometry relative="1" as="geometry">
            <mxPoint x="5066" y="270" as="targetPoint" />
            <Array as="points">
              <mxPoint x="5200" y="270" />
            </Array>
          </mxGeometry>
        </mxCell>
        <mxCell id="l9OQHqU8yiIOQpjbqeAc-12" value="" style="shape=umlLifeline;perimeter=lifelinePerimeter;whiteSpace=wrap;html=1;container=1;dropTarget=0;collapsible=0;recursiveResize=0;outlineConnect=0;portConstraint=eastwest;newEdgeStyle={&quot;edgeStyle&quot;:&quot;elbowEdgeStyle&quot;,&quot;elbow&quot;:&quot;vertical&quot;,&quot;curved&quot;:0,&quot;rounded&quot;:0};participant=umlActor;" vertex="1" parent="1">
          <mxGeometry x="4470" y="151.25" width="20" height="508.75" as="geometry" />
        </mxCell>
        <mxCell id="l9OQHqU8yiIOQpjbqeAc-13" value="" style="html=1;points=[];perimeter=orthogonalPerimeter;outlineConnect=0;targetShapes=umlLifeline;portConstraint=eastwest;newEdgeStyle={&quot;edgeStyle&quot;:&quot;elbowEdgeStyle&quot;,&quot;elbow&quot;:&quot;vertical&quot;,&quot;curved&quot;:0,&quot;rounded&quot;:0};" vertex="1" parent="l9OQHqU8yiIOQpjbqeAc-12">
          <mxGeometry x="5" y="189.75" width="10" height="40" as="geometry" />
        </mxCell>
        <mxCell id="l9OQHqU8yiIOQpjbqeAc-14" value="Анализ пришедшей информации" style="html=1;align=left;spacingLeft=2;endArrow=block;rounded=0;edgeStyle=orthogonalEdgeStyle;curved=0;rounded=0;" edge="1" parent="l9OQHqU8yiIOQpjbqeAc-12" target="l9OQHqU8yiIOQpjbqeAc-13">
          <mxGeometry relative="1" as="geometry">
            <mxPoint x="10" y="169.75" as="sourcePoint" />
            <Array as="points">
              <mxPoint x="40" y="199.75" />
            </Array>
          </mxGeometry>
        </mxCell>
        <mxCell id="l9OQHqU8yiIOQpjbqeAc-15" value="Монолит фронт" style="shape=umlLifeline;perimeter=lifelinePerimeter;whiteSpace=wrap;html=1;container=1;dropTarget=0;collapsible=0;recursiveResize=0;outlineConnect=0;portConstraint=eastwest;newEdgeStyle={&quot;edgeStyle&quot;:&quot;elbowEdgeStyle&quot;,&quot;elbow&quot;:&quot;vertical&quot;,&quot;curved&quot;:0,&quot;rounded&quot;:0};" vertex="1" parent="1">
          <mxGeometry x="4710" y="147.5" width="100" height="512.5" as="geometry" />
        </mxCell>
        <mxCell id="l9OQHqU8yiIOQpjbqeAc-16" value="" style="html=1;points=[];perimeter=orthogonalPerimeter;outlineConnect=0;targetShapes=umlLifeline;portConstraint=eastwest;newEdgeStyle={&quot;edgeStyle&quot;:&quot;elbowEdgeStyle&quot;,&quot;elbow&quot;:&quot;vertical&quot;,&quot;curved&quot;:0,&quot;rounded&quot;:0};" vertex="1" parent="l9OQHqU8yiIOQpjbqeAc-15">
          <mxGeometry x="45" y="72.5" width="10" height="80" as="geometry" />
        </mxCell>
        <mxCell id="l9OQHqU8yiIOQpjbqeAc-17" value="" style="html=1;points=[];perimeter=orthogonalPerimeter;outlineConnect=0;targetShapes=umlLifeline;portConstraint=eastwest;newEdgeStyle={&quot;edgeStyle&quot;:&quot;elbowEdgeStyle&quot;,&quot;elbow&quot;:&quot;vertical&quot;,&quot;curved&quot;:0,&quot;rounded&quot;:0};" vertex="1" parent="l9OQHqU8yiIOQpjbqeAc-15">
          <mxGeometry x="45" y="252.5" width="10" height="80" as="geometry" />
        </mxCell>
        <mxCell id="l9OQHqU8yiIOQpjbqeAc-18" value="" style="html=1;points=[];perimeter=orthogonalPerimeter;outlineConnect=0;targetShapes=umlLifeline;portConstraint=eastwest;newEdgeStyle={&quot;edgeStyle&quot;:&quot;elbowEdgeStyle&quot;,&quot;elbow&quot;:&quot;vertical&quot;,&quot;curved&quot;:0,&quot;rounded&quot;:0};" vertex="1" parent="l9OQHqU8yiIOQpjbqeAc-15">
          <mxGeometry x="45" y="382.5" width="10" height="80" as="geometry" />
        </mxCell>
        <mxCell id="l9OQHqU8yiIOQpjbqeAc-19" value="Нажал кнопку &quot;Отказ&quot;" style="html=1;verticalAlign=bottom;endArrow=block;edgeStyle=elbowEdgeStyle;elbow=vertical;curved=0;rounded=0;" edge="1" parent="l9OQHqU8yiIOQpjbqeAc-15" target="l9OQHqU8yiIOQpjbqeAc-18">
          <mxGeometry relative="1" as="geometry">
            <mxPoint x="-230" y="382.5" as="sourcePoint" />
            <Array as="points">
              <mxPoint x="40" y="382.5" />
            </Array>
          </mxGeometry>
        </mxCell>
        <mxCell id="l9OQHqU8yiIOQpjbqeAc-20" value="следующий этап UC 13" style="html=1;verticalAlign=bottom;endArrow=open;dashed=1;endSize=8;edgeStyle=elbowEdgeStyle;elbow=vertical;curved=0;rounded=0;" edge="1" parent="l9OQHqU8yiIOQpjbqeAc-15" source="l9OQHqU8yiIOQpjbqeAc-18">
          <mxGeometry relative="1" as="geometry">
            <mxPoint x="-230" y="462.5" as="targetPoint" />
            <Array as="points">
              <mxPoint x="-87" y="462.5" />
            </Array>
          </mxGeometry>
        </mxCell>
        <mxCell id="l9OQHqU8yiIOQpjbqeAc-21" value="Переход на вкладку Предоставление результата" style="html=1;verticalAlign=bottom;endArrow=block;edgeStyle=elbowEdgeStyle;elbow=vertical;curved=0;rounded=0;" edge="1" parent="1" source="l9OQHqU8yiIOQpjbqeAc-12" target="l9OQHqU8yiIOQpjbqeAc-16">
          <mxGeometry relative="1" as="geometry">
            <mxPoint x="4685" y="220" as="sourcePoint" />
            <Array as="points">
              <mxPoint x="4630" y="220" />
            </Array>
          </mxGeometry>
        </mxCell>
        <mxCell id="l9OQHqU8yiIOQpjbqeAc-22" value="Вкладка с информацией о заявлении и заявителе&lt;br&gt;кнопки с галочками &quot;соответствие&quot; и тд." style="html=1;verticalAlign=bottom;endArrow=open;dashed=1;endSize=8;edgeStyle=elbowEdgeStyle;elbow=vertical;curved=0;rounded=0;" edge="1" parent="1" source="l9OQHqU8yiIOQpjbqeAc-16" target="l9OQHqU8yiIOQpjbqeAc-12">
          <mxGeometry relative="1" as="geometry">
            <mxPoint x="4685" y="295" as="targetPoint" />
            <Array as="points">
              <mxPoint x="4623" y="300" />
            </Array>
          </mxGeometry>
        </mxCell>
        <mxCell id="l9OQHqU8yiIOQpjbqeAc-23" value="запрос информации&lt;br style=&quot;border-color: var(--border-color);&quot;&gt;для генерация вкладки" style="html=1;verticalAlign=bottom;endArrow=block;edgeStyle=elbowEdgeStyle;elbow=vertical;curved=0;rounded=0;" edge="1" parent="1" source="l9OQHqU8yiIOQpjbqeAc-16" target="l9OQHqU8yiIOQpjbqeAc-3">
          <mxGeometry relative="1" as="geometry">
            <mxPoint x="4985" y="228" as="sourcePoint" />
            <Array as="points">
              <mxPoint x="4910" y="230" />
            </Array>
          </mxGeometry>
        </mxCell>
        <mxCell id="l9OQHqU8yiIOQpjbqeAc-24" value="Информация по элементам&lt;br style=&quot;border-color: var(--border-color);&quot;&gt;интерфейса на вкладке" style="html=1;verticalAlign=bottom;endArrow=open;dashed=1;endSize=8;edgeStyle=elbowEdgeStyle;elbow=vertical;curved=0;rounded=0;" edge="1" parent="1" source="l9OQHqU8yiIOQpjbqeAc-3" target="l9OQHqU8yiIOQpjbqeAc-16">
          <mxGeometry relative="1" as="geometry">
            <mxPoint x="4985" y="303" as="targetPoint" />
            <Array as="points">
              <mxPoint x="4910" y="280" />
            </Array>
          </mxGeometry>
        </mxCell>
        <mxCell id="l9OQHqU8yiIOQpjbqeAc-25" value="Нажал кнопку &quot;Оказать услугу&quot;" style="html=1;verticalAlign=bottom;endArrow=block;edgeStyle=elbowEdgeStyle;elbow=vertical;curved=0;rounded=0;" edge="1" parent="1" source="l9OQHqU8yiIOQpjbqeAc-12" target="l9OQHqU8yiIOQpjbqeAc-17">
          <mxGeometry relative="1" as="geometry">
            <mxPoint x="4685" y="370" as="sourcePoint" />
            <Array as="points">
              <mxPoint x="4750" y="400" />
            </Array>
          </mxGeometry>
        </mxCell>
        <mxCell id="l9OQHqU8yiIOQpjbqeAc-27" value="UC 8" style="html=1;verticalAlign=bottom;endArrow=block;edgeStyle=elbowEdgeStyle;elbow=vertical;curved=0;rounded=0;" edge="1" parent="1" source="l9OQHqU8yiIOQpjbqeAc-17" target="l9OQHqU8yiIOQpjbqeAc-4">
          <mxGeometry relative="1" as="geometry">
            <mxPoint x="4985" y="400" as="sourcePoint" />
            <Array as="points">
              <mxPoint x="4910" y="420" />
            </Array>
          </mxGeometry>
        </mxCell>
        <mxCell id="l9OQHqU8yiIOQpjbqeAc-28" value="События по окончанию этапа" style="html=1;verticalAlign=bottom;endArrow=open;dashed=1;endSize=8;edgeStyle=elbowEdgeStyle;elbow=vertical;curved=0;rounded=0;" edge="1" parent="1">
          <mxGeometry relative="1" as="geometry">
            <mxPoint x="4765" y="450" as="targetPoint" />
            <Array as="points">
              <mxPoint x="4830" y="450" />
              <mxPoint x="4910" y="460" />
            </Array>
            <mxPoint x="5055" y="450" as="sourcePoint" />
          </mxGeometry>
        </mxCell>
        <mxCell id="l9OQHqU8yiIOQpjbqeAc-29" value="alt" style="shape=umlFrame;whiteSpace=wrap;html=1;pointerEvents=0;" vertex="1" parent="1">
          <mxGeometry x="4400" y="500" width="720" height="130" as="geometry" />
        </mxCell>
        <mxCell id="l9OQHqU8yiIOQpjbqeAc-39" value="следующий этап UC 13" style="html=1;verticalAlign=bottom;endArrow=open;dashed=1;endSize=8;edgeStyle=elbowEdgeStyle;elbow=vertical;curved=0;rounded=0;" edge="1" parent="1">
          <mxGeometry relative="1" as="geometry">
            <mxPoint x="4480" y="466.01" as="targetPoint" />
            <Array as="points">
              <mxPoint x="4610" y="466.01" />
            </Array>
            <mxPoint x="4755" y="466.01" as="sourcePoint" />
          </mxGeometry>
        </mxCell>
        <mxCell id="l9OQHqU8yiIOQpjbqeAc-125" value="Монолит" style="shape=umlLifeline;perimeter=lifelinePerimeter;whiteSpace=wrap;html=1;container=1;dropTarget=0;collapsible=0;recursiveResize=0;outlineConnect=0;portConstraint=eastwest;newEdgeStyle={&quot;edgeStyle&quot;:&quot;elbowEdgeStyle&quot;,&quot;elbow&quot;:&quot;vertical&quot;,&quot;curved&quot;:0,&quot;rounded&quot;:0};" vertex="1" parent="1">
          <mxGeometry x="5623" y="164.37" width="100" height="650" as="geometry" />
        </mxCell>
        <mxCell id="l9OQHqU8yiIOQpjbqeAc-126" value="" style="html=1;points=[];perimeter=orthogonalPerimeter;outlineConnect=0;targetShapes=umlLifeline;portConstraint=eastwest;newEdgeStyle={&quot;edgeStyle&quot;:&quot;elbowEdgeStyle&quot;,&quot;elbow&quot;:&quot;vertical&quot;,&quot;curved&quot;:0,&quot;rounded&quot;:0};" vertex="1" parent="l9OQHqU8yiIOQpjbqeAc-125">
          <mxGeometry x="45" y="191.25" width="10" height="40" as="geometry" />
        </mxCell>
        <mxCell id="l9OQHqU8yiIOQpjbqeAc-127" value="Генерация резолюции путем пихания&amp;nbsp;&lt;br&gt;инфы от пользователя в шаблон" style="html=1;align=left;spacingLeft=2;endArrow=block;rounded=0;edgeStyle=orthogonalEdgeStyle;curved=0;rounded=0;" edge="1" parent="l9OQHqU8yiIOQpjbqeAc-125" target="l9OQHqU8yiIOQpjbqeAc-126">
          <mxGeometry relative="1" as="geometry">
            <mxPoint x="50" y="171.25" as="sourcePoint" />
            <Array as="points">
              <mxPoint x="80" y="201.25" />
            </Array>
          </mxGeometry>
        </mxCell>
        <mxCell id="l9OQHqU8yiIOQpjbqeAc-128" value="" style="shape=umlLifeline;perimeter=lifelinePerimeter;whiteSpace=wrap;html=1;container=1;dropTarget=0;collapsible=0;recursiveResize=0;outlineConnect=0;portConstraint=eastwest;newEdgeStyle={&quot;edgeStyle&quot;:&quot;elbowEdgeStyle&quot;,&quot;elbow&quot;:&quot;vertical&quot;,&quot;curved&quot;:0,&quot;rounded&quot;:0};participant=umlActor;" vertex="1" parent="1">
          <mxGeometry x="6163" y="162.5" width="20" height="668.75" as="geometry" />
        </mxCell>
        <mxCell id="l9OQHqU8yiIOQpjbqeAc-129" value="" style="html=1;points=[];perimeter=orthogonalPerimeter;outlineConnect=0;targetShapes=umlLifeline;portConstraint=eastwest;newEdgeStyle={&quot;edgeStyle&quot;:&quot;elbowEdgeStyle&quot;,&quot;elbow&quot;:&quot;vertical&quot;,&quot;curved&quot;:0,&quot;rounded&quot;:0};" vertex="1" parent="l9OQHqU8yiIOQpjbqeAc-128">
          <mxGeometry x="5" y="91.12" width="10" height="80" as="geometry" />
        </mxCell>
        <mxCell id="l9OQHqU8yiIOQpjbqeAc-130" value="" style="html=1;points=[];perimeter=orthogonalPerimeter;outlineConnect=0;targetShapes=umlLifeline;portConstraint=eastwest;newEdgeStyle={&quot;edgeStyle&quot;:&quot;elbowEdgeStyle&quot;,&quot;elbow&quot;:&quot;vertical&quot;,&quot;curved&quot;:0,&quot;rounded&quot;:0};" vertex="1" parent="l9OQHqU8yiIOQpjbqeAc-128">
          <mxGeometry x="5" y="255" width="10" height="40" as="geometry" />
        </mxCell>
        <mxCell id="l9OQHqU8yiIOQpjbqeAc-131" value="" style="html=1;points=[];perimeter=orthogonalPerimeter;outlineConnect=0;targetShapes=umlLifeline;portConstraint=eastwest;newEdgeStyle={&quot;edgeStyle&quot;:&quot;elbowEdgeStyle&quot;,&quot;elbow&quot;:&quot;vertical&quot;,&quot;curved&quot;:0,&quot;rounded&quot;:0};" vertex="1" parent="l9OQHqU8yiIOQpjbqeAc-128">
          <mxGeometry x="5" y="362.5" width="10" height="40" as="geometry" />
        </mxCell>
        <mxCell id="l9OQHqU8yiIOQpjbqeAc-132" value="" style="html=1;points=[];perimeter=orthogonalPerimeter;outlineConnect=0;targetShapes=umlLifeline;portConstraint=eastwest;newEdgeStyle={&quot;edgeStyle&quot;:&quot;elbowEdgeStyle&quot;,&quot;elbow&quot;:&quot;vertical&quot;,&quot;curved&quot;:0,&quot;rounded&quot;:0};" vertex="1" parent="l9OQHqU8yiIOQpjbqeAc-128">
          <mxGeometry x="-249" y="340.62" width="10" height="80" as="geometry" />
        </mxCell>
        <mxCell id="l9OQHqU8yiIOQpjbqeAc-133" value="Вызов окна с документом резолюции" style="html=1;verticalAlign=bottom;endArrow=block;edgeStyle=elbowEdgeStyle;elbow=vertical;curved=0;rounded=0;" edge="1" parent="l9OQHqU8yiIOQpjbqeAc-128" target="l9OQHqU8yiIOQpjbqeAc-132">
          <mxGeometry relative="1" as="geometry">
            <mxPoint x="-490" y="345.62" as="sourcePoint" />
            <Array as="points">
              <mxPoint x="-340" y="345.62" />
            </Array>
          </mxGeometry>
        </mxCell>
        <mxCell id="l9OQHqU8yiIOQpjbqeAc-134" value="Возврат в начало сценария" style="html=1;verticalAlign=bottom;endArrow=open;dashed=1;endSize=8;edgeStyle=elbowEdgeStyle;elbow=vertical;curved=0;rounded=0;" edge="1" parent="l9OQHqU8yiIOQpjbqeAc-128" source="l9OQHqU8yiIOQpjbqeAc-132">
          <mxGeometry relative="1" as="geometry">
            <mxPoint x="-490" y="415.62" as="targetPoint" />
            <Array as="points">
              <mxPoint x="-340" y="415.62" />
            </Array>
          </mxGeometry>
        </mxCell>
        <mxCell id="l9OQHqU8yiIOQpjbqeAc-135" value="Отрисовка окна резолюции" style="html=1;verticalAlign=bottom;endArrow=block;edgeStyle=elbowEdgeStyle;elbow=vertical;curved=0;rounded=0;" edge="1" parent="l9OQHqU8yiIOQpjbqeAc-128" source="l9OQHqU8yiIOQpjbqeAc-132" target="l9OQHqU8yiIOQpjbqeAc-131">
          <mxGeometry relative="1" as="geometry">
            <mxPoint x="-65" y="345.62" as="sourcePoint" />
            <Array as="points">
              <mxPoint x="-110" y="365.62" />
            </Array>
          </mxGeometry>
        </mxCell>
        <mxCell id="l9OQHqU8yiIOQpjbqeAc-136" value="Кнопка не ОК" style="html=1;verticalAlign=bottom;endArrow=open;dashed=1;endSize=8;edgeStyle=elbowEdgeStyle;elbow=vertical;curved=0;rounded=0;" edge="1" parent="l9OQHqU8yiIOQpjbqeAc-128" source="l9OQHqU8yiIOQpjbqeAc-131" target="l9OQHqU8yiIOQpjbqeAc-132">
          <mxGeometry x="0.0006" relative="1" as="geometry">
            <mxPoint x="-65" y="420.62" as="targetPoint" />
            <Array as="points">
              <mxPoint x="-110" y="395.62" />
            </Array>
            <mxPoint as="offset" />
          </mxGeometry>
        </mxCell>
        <mxCell id="l9OQHqU8yiIOQpjbqeAc-137" value="Монолит фронт" style="shape=umlLifeline;perimeter=lifelinePerimeter;whiteSpace=wrap;html=1;container=1;dropTarget=0;collapsible=0;recursiveResize=0;outlineConnect=0;portConstraint=eastwest;newEdgeStyle={&quot;edgeStyle&quot;:&quot;elbowEdgeStyle&quot;,&quot;elbow&quot;:&quot;vertical&quot;,&quot;curved&quot;:0,&quot;rounded&quot;:0};" vertex="1" parent="1">
          <mxGeometry x="5869" y="166.87" width="100" height="647.5" as="geometry" />
        </mxCell>
        <mxCell id="l9OQHqU8yiIOQpjbqeAc-138" value="" style="html=1;points=[];perimeter=orthogonalPerimeter;outlineConnect=0;targetShapes=umlLifeline;portConstraint=eastwest;newEdgeStyle={&quot;edgeStyle&quot;:&quot;elbowEdgeStyle&quot;,&quot;elbow&quot;:&quot;vertical&quot;,&quot;curved&quot;:0,&quot;rounded&quot;:0};" vertex="1" parent="l9OQHqU8yiIOQpjbqeAc-137">
          <mxGeometry x="44" y="81.75" width="10" height="80" as="geometry" />
        </mxCell>
        <mxCell id="l9OQHqU8yiIOQpjbqeAc-139" value="" style="html=1;points=[];perimeter=orthogonalPerimeter;outlineConnect=0;targetShapes=umlLifeline;portConstraint=eastwest;newEdgeStyle={&quot;edgeStyle&quot;:&quot;elbowEdgeStyle&quot;,&quot;elbow&quot;:&quot;vertical&quot;,&quot;curved&quot;:0,&quot;rounded&quot;:0};" vertex="1" parent="l9OQHqU8yiIOQpjbqeAc-137">
          <mxGeometry x="45" y="228.75" width="10" height="80" as="geometry" />
        </mxCell>
        <mxCell id="l9OQHqU8yiIOQpjbqeAc-140" value="вызов окна параметров резолюции" style="html=1;verticalAlign=bottom;endArrow=block;edgeStyle=elbowEdgeStyle;elbow=vertical;curved=0;rounded=0;" edge="1" parent="1" source="l9OQHqU8yiIOQpjbqeAc-125" target="l9OQHqU8yiIOQpjbqeAc-138">
          <mxGeometry relative="1" as="geometry">
            <mxPoint x="5843" y="248.62" as="sourcePoint" />
            <Array as="points">
              <mxPoint x="5823" y="255.62" />
            </Array>
          </mxGeometry>
        </mxCell>
        <mxCell id="l9OQHqU8yiIOQpjbqeAc-141" value="" style="html=1;verticalAlign=bottom;endArrow=block;edgeStyle=elbowEdgeStyle;elbow=horizontal;curved=0;rounded=0;" edge="1" parent="1" source="l9OQHqU8yiIOQpjbqeAc-138" target="l9OQHqU8yiIOQpjbqeAc-129">
          <mxGeometry relative="1" as="geometry">
            <mxPoint x="6098" y="253.62" as="sourcePoint" />
            <Array as="points">
              <mxPoint x="6046" y="265.62" />
            </Array>
          </mxGeometry>
        </mxCell>
        <mxCell id="l9OQHqU8yiIOQpjbqeAc-142" value="Отрисовка окна с параметрами резолюции" style="edgeLabel;html=1;align=center;verticalAlign=middle;resizable=0;points=[];" vertex="1" connectable="0" parent="l9OQHqU8yiIOQpjbqeAc-141">
          <mxGeometry x="0.1338" y="-1" relative="1" as="geometry">
            <mxPoint x="-19" y="-11" as="offset" />
          </mxGeometry>
        </mxCell>
        <mxCell id="l9OQHqU8yiIOQpjbqeAc-143" value="Заполненные поля, выбор шаблона резолюции" style="html=1;verticalAlign=bottom;endArrow=open;dashed=1;endSize=8;edgeStyle=elbowEdgeStyle;elbow=vertical;curved=0;rounded=0;" edge="1" parent="1" source="l9OQHqU8yiIOQpjbqeAc-129" target="l9OQHqU8yiIOQpjbqeAc-138">
          <mxGeometry relative="1" as="geometry">
            <mxPoint x="6098" y="328.62" as="targetPoint" />
            <Array as="points">
              <mxPoint x="6043" y="315.62" />
            </Array>
          </mxGeometry>
        </mxCell>
        <mxCell id="l9OQHqU8yiIOQpjbqeAc-144" value="инфа для генерации резолюции" style="html=1;verticalAlign=bottom;endArrow=open;dashed=1;endSize=8;edgeStyle=elbowEdgeStyle;elbow=vertical;curved=0;rounded=0;" edge="1" parent="1" target="l9OQHqU8yiIOQpjbqeAc-125">
          <mxGeometry relative="1" as="geometry">
            <mxPoint x="5913" y="325.62" as="sourcePoint" />
            <mxPoint x="5833" y="325.62" as="targetPoint" />
          </mxGeometry>
        </mxCell>
        <mxCell id="l9OQHqU8yiIOQpjbqeAc-145" value="Вызов окна с документом резолюции" style="html=1;verticalAlign=bottom;endArrow=block;edgeStyle=elbowEdgeStyle;elbow=vertical;curved=0;rounded=0;" edge="1" parent="1" target="l9OQHqU8yiIOQpjbqeAc-139">
          <mxGeometry relative="1" as="geometry">
            <mxPoint x="5672.666666666667" y="400.62" as="sourcePoint" />
            <Array as="points">
              <mxPoint x="5823" y="400.62" />
            </Array>
          </mxGeometry>
        </mxCell>
        <mxCell id="l9OQHqU8yiIOQpjbqeAc-146" value="uc 8" style="html=1;verticalAlign=bottom;endArrow=open;dashed=1;endSize=8;edgeStyle=elbowEdgeStyle;elbow=vertical;curved=0;rounded=0;" edge="1" parent="1" source="l9OQHqU8yiIOQpjbqeAc-139">
          <mxGeometry relative="1" as="geometry">
            <mxPoint x="5672.666666666667" y="470.62" as="targetPoint" />
            <Array as="points">
              <mxPoint x="5823" y="470.62" />
            </Array>
          </mxGeometry>
        </mxCell>
        <mxCell id="l9OQHqU8yiIOQpjbqeAc-147" value="Отрисовка окна резолюции" style="html=1;verticalAlign=bottom;endArrow=block;edgeStyle=elbowEdgeStyle;elbow=vertical;curved=0;rounded=0;" edge="1" parent="1" source="l9OQHqU8yiIOQpjbqeAc-139" target="l9OQHqU8yiIOQpjbqeAc-130">
          <mxGeometry relative="1" as="geometry">
            <mxPoint x="6098" y="400.62" as="sourcePoint" />
            <Array as="points">
              <mxPoint x="6053" y="420.62" />
            </Array>
          </mxGeometry>
        </mxCell>
        <mxCell id="l9OQHqU8yiIOQpjbqeAc-148" value="Кнопка ОК" style="html=1;verticalAlign=bottom;endArrow=open;dashed=1;endSize=8;edgeStyle=elbowEdgeStyle;elbow=vertical;curved=0;rounded=0;" edge="1" parent="1" source="l9OQHqU8yiIOQpjbqeAc-130" target="l9OQHqU8yiIOQpjbqeAc-139">
          <mxGeometry x="0.0006" relative="1" as="geometry">
            <mxPoint x="6098" y="475.62" as="targetPoint" />
            <Array as="points">
              <mxPoint x="6053" y="450.62" />
            </Array>
            <mxPoint as="offset" />
          </mxGeometry>
        </mxCell>
        <mxCell id="l9OQHqU8yiIOQpjbqeAc-149" value="alt" style="shape=umlFrame;whiteSpace=wrap;html=1;pointerEvents=0;" vertex="1" parent="1">
          <mxGeometry x="5593" y="478.12" width="610" height="200" as="geometry" />
        </mxCell>
        <mxCell id="l9OQHqU8yiIOQpjbqeAc-150" value="Создание резолюции" style="text;align=center;fontStyle=1;verticalAlign=middle;spacingLeft=3;spacingRight=3;strokeColor=none;rotatable=0;points=[[0,0.5],[1,0.5]];portConstraint=eastwest;html=1;" vertex="1" parent="1">
          <mxGeometry x="5709" y="60" width="80" height="26" as="geometry" />
        </mxCell>
      </root>
    </mxGraphModel>
  </diagram>
</mxfile>
